<svg id="グループ_373" data-name="グループ 373" xmlns="http://www.w3.org/2000/svg" width="52.604" height="49.417" viewBox="0 0 52.604 49.417">
  <g id="グループ_356" data-name="グループ 356" transform="translate(0 16.968)">
    <g id="グループ_355" data-name="グループ 355">
      <g id="グループ_348" data-name="グループ 348">
        <g id="グループ_347" data-name="グループ 347">
          <g id="グループ_346" data-name="グループ 346">
            <path id="パス_168" data-name="パス 168" d="M19.945,43.848h-5.21a1.017,1.017,0,0,1-1.042-1.042V39.681a12.441,12.441,0,0,1-2.977-1.191L8.335,40.723a1.352,1.352,0,0,1-1.488,0L3.126,37.3c0-.149-.149-.3-.149-.6a1.137,1.137,0,0,1,.3-.744l2.382-2.233A19.376,19.376,0,0,1,4.465,31.2H1.042A1.017,1.017,0,0,1,0,30.155V25.391A1.062,1.062,0,0,1,1.042,24.2H4.465a7.9,7.9,0,0,1,1.191-2.53L3.275,19.438a1.079,1.079,0,0,1,0-1.488L7,14.526a1.352,1.352,0,0,1,1.488,0l2.382,2.233a17.74,17.74,0,0,1,2.977-1.191V12.442A1.017,1.017,0,0,1,14.885,11.4h5.21a1.017,1.017,0,0,1,1.042,1.042v3.126a12.441,12.441,0,0,1,2.977,1.191l2.382-2.233a1.352,1.352,0,0,1,1.488,0L31.7,17.949a1.079,1.079,0,0,1,0,1.488L29.323,21.67a19.376,19.376,0,0,1,1.191,2.53h3.423a1.017,1.017,0,0,1,1.042,1.042v4.763a1.017,1.017,0,0,1-1.042,1.042H30.513a7.9,7.9,0,0,1-1.191,2.53L31.7,35.811a1.079,1.079,0,0,1,0,1.488l-3.721,3.423a1.352,1.352,0,0,1-1.488,0L24.113,38.49a17.741,17.741,0,0,1-2.977,1.191v3.126A1.263,1.263,0,0,1,19.945,43.848Zm-4.168-2.084H18.9V38.936a1.087,1.087,0,0,1,.893-1.042,10.29,10.29,0,0,0,3.721-1.488.9.9,0,0,1,1.191.149l2.233,2.084L29.025,36.7,27.09,34.62a.942.942,0,0,1-.149-1.34,7.784,7.784,0,0,0,1.488-3.423,1.119,1.119,0,0,1,1.042-.744h3.275V26.433H29.471a1.119,1.119,0,0,1-1.042-.744,9.995,9.995,0,0,0-1.488-3.423.942.942,0,0,1,.149-1.34l2.233-2.084L27.09,16.758l-2.233,2.084a1.165,1.165,0,0,1-1.191.149A11.483,11.483,0,0,0,19.945,17.5a1.277,1.277,0,0,1-.893-1.042V13.633H15.926v2.828a1.087,1.087,0,0,1-.893,1.042,10.289,10.289,0,0,0-3.721,1.488.9.9,0,0,1-1.191-.149l-2.53-2.084L5.507,18.693,7.74,20.777a.942.942,0,0,1,.149,1.34A7.784,7.784,0,0,0,6.4,25.54a1.119,1.119,0,0,1-1.042.744H2.084v2.679H5.358a1.119,1.119,0,0,1,1.042.744,9.995,9.995,0,0,0,1.488,3.423.942.942,0,0,1-.149,1.34L5.507,36.555,7.591,38.49l2.233-2.084a1.111,1.111,0,0,1,1.34,0,11.483,11.483,0,0,0,3.721,1.488,1.277,1.277,0,0,1,.893,1.042Z" transform="translate(0 -11.4)" fill="#3cd2c8"/>
          </g>
        </g>
      </g>
      <g id="グループ_351" data-name="グループ 351" transform="translate(23.071 20.838)">
        <g id="グループ_350" data-name="グループ 350">
          <g id="グループ_349" data-name="グループ 349">
            <path id="パス_169" data-name="パス 169" d="M16.542,27.484A1.017,1.017,0,0,1,15.5,26.442h0a1.042,1.042,0,1,1,1.042,1.042Z" transform="translate(-15.5 -25.4)" fill="#3cd2c8"/>
          </g>
        </g>
      </g>
      <g id="グループ_354" data-name="グループ 354" transform="translate(7.442 6.847)">
        <g id="グループ_353" data-name="グループ 353">
          <g id="グループ_352" data-name="グループ 352">
            <path id="パス_170" data-name="パス 170" d="M14.973,34.755C9.465,34.755,5,30.587,5,25.377S9.465,16,14.973,16s9.973,4.168,9.973,9.377A10.825,10.825,0,0,1,23.9,29.694a1.1,1.1,0,1,1-1.935-1.042,6.374,6.374,0,0,0,.893-3.275c0-4.019-3.572-7.293-7.889-7.293s-7.889,3.275-7.889,7.293,3.572,7.293,7.889,7.293a9.824,9.824,0,0,0,4.019-.893.98.98,0,0,1,1.34.447.883.883,0,0,1-.447,1.34A11.37,11.37,0,0,1,14.973,34.755Z" transform="translate(-5 -16)" fill="#3cd2c8"/>
          </g>
        </g>
      </g>
    </g>
  </g>
  <g id="グループ_364" data-name="グループ 364" transform="translate(30.452 10.539)">
    <g id="グループ_363" data-name="グループ 363">
      <g id="グループ_359" data-name="グループ 359">
        <g id="グループ_358" data-name="グループ 358">
          <g id="グループ_357" data-name="グループ 357">
            <path id="パス_171" data-name="パス 171" d="M31.981,27.8h0l-3.275-.447a.819.819,0,0,1-.744-.447.655.655,0,0,1-.149-.744l.149-1.488a8.839,8.839,0,0,1-1.191-.6L25.283,25.12a.942.942,0,0,1-1.34-.149l-1.935-2.233a1.137,1.137,0,0,1-.3-.744.819.819,0,0,1,.447-.744l1.34-.893a2.8,2.8,0,0,1-.3-1.191l-1.786-.149a.819.819,0,0,1-.744-.447.655.655,0,0,1-.149-.744l.3-2.828a.954.954,0,0,1,1.191-.893l1.786.149c.149-.3.447-.744.6-1.042l-1.042-1.191a1.137,1.137,0,0,1-.3-.744.819.819,0,0,1,.447-.744l2.53-2.084a.942.942,0,0,1,1.34.149l1.191,1.34a4.346,4.346,0,0,1,1.34-.3L30.046,8a.954.954,0,0,1,1.191-.893l3.126.3a.819.819,0,0,1,.744.447.655.655,0,0,1,.149.744l-.149,1.488a8.838,8.838,0,0,1,1.191.6L37.786,9.64a1.138,1.138,0,0,1,1.34.3l1.935,2.233a1.137,1.137,0,0,1,.3.744.819.819,0,0,1-.447.744l-1.34.893a2.8,2.8,0,0,1,.3,1.191l1.786.149a.819.819,0,0,1,.744.447.655.655,0,0,1,.149.744l-.3,2.828a.954.954,0,0,1-1.191.893l-1.786-.149c-.149.3-.447.744-.6,1.042l1.042,1.191a1.137,1.137,0,0,1,.3.744.819.819,0,0,1-.447.744l-2.382,1.786a.942.942,0,0,1-1.34-.149l-1.191-1.042a4.346,4.346,0,0,1-1.34.3l-.149,1.637A1.3,1.3,0,0,1,31.981,27.8Zm-1.935-2.382,1.042.149.149-1.34a.96.96,0,0,1,.893-.893,6.238,6.238,0,0,0,2.233-.6.933.933,0,0,1,1.191.3L36.6,24.227l.744-.6-.893-1.042a1.111,1.111,0,0,1,0-1.34,5.575,5.575,0,0,0,1.042-1.786,1.119,1.119,0,0,1,1.042-.744l1.488.149.149-.744-1.488-.149a.96.96,0,0,1-.893-.893,5.519,5.519,0,0,0-.6-2.084.969.969,0,0,1,.3-1.34l1.042-.744-.6-.744-1.042.744a.9.9,0,0,1-1.191,0,5.5,5.5,0,0,0-2.084-1.042,1.179,1.179,0,0,1-.744-1.191l.149-1.34-1.042-.149-.149,1.34a.96.96,0,0,1-.893.893,6.238,6.238,0,0,0-2.233.6.933.933,0,0,1-1.191-.3l-1.042-1.191-.744.744.893,1.042a1.111,1.111,0,0,1,0,1.34,5.575,5.575,0,0,0-1.042,1.786,1.119,1.119,0,0,1-1.042.744l-1.488-.149-.3.744,1.488.149a.96.96,0,0,1,.893.893,5.519,5.519,0,0,0,.6,2.084.969.969,0,0,1-.3,1.34l-1.042.744.6.744,1.191-.893a.9.9,0,0,1,1.191,0,5.5,5.5,0,0,0,2.084,1.042,1.179,1.179,0,0,1,.744,1.191Z" transform="translate(-20.459 -7.081)" fill="#3cd2c8"/>
          </g>
        </g>
      </g>
      <g id="グループ_362" data-name="グループ 362" transform="translate(6.276 5.506)">
        <g id="グループ_361" data-name="グループ 361">
          <g id="グループ_360" data-name="グループ 360">
            <path id="パス_172" data-name="パス 172" d="M29.624,20.336h-.6A5.015,5.015,0,0,1,25.605,18.4a4.8,4.8,0,0,1-.893-3.423,5.016,5.016,0,0,1,8.931-2.233,4.8,4.8,0,0,1,.893,3.423,5.219,5.219,0,0,1-.893,2.084,1.073,1.073,0,0,1-1.786-1.191,1.69,1.69,0,0,0,.447-1.191,2.045,2.045,0,0,0-.6-1.786,3.258,3.258,0,0,0-2.084-1.191,2.909,2.909,0,0,0-3.275,2.233,2.045,2.045,0,0,0,.6,1.786A3.258,3.258,0,0,0,29.029,18.1a4.589,4.589,0,0,0,1.488-.149c.6-.149,1.191,0,1.34.6s0,1.191-.6,1.34A3,3,0,0,1,29.624,20.336Z" transform="translate(-24.675 -10.78)" fill="#3cd2c8"/>
          </g>
        </g>
      </g>
    </g>
  </g>
  <g id="グループ_372" data-name="グループ 372" transform="translate(17.651)">
    <g id="グループ_371" data-name="グループ 371">
      <g id="グループ_367" data-name="グループ 367">
        <g id="グループ_366" data-name="グループ 366">
          <g id="グループ_365" data-name="グループ 365">
            <path id="パス_173" data-name="パス 173" d="M21.3,16.82h0l-2.679-.3a.819.819,0,0,1-.744-.447.655.655,0,0,1-.149-.744l.149-1.042c-.3-.149-.447-.3-.744-.447l-1.042.744a.942.942,0,0,1-1.34-.149L13.26,12.652a1.137,1.137,0,0,1-.3-.744.819.819,0,0,1,.447-.744l.893-.744a.9.9,0,0,1-.149-.6l-1.34-.149a.819.819,0,0,1-.744-.447.655.655,0,0,1-.149-.744l.3-2.233a.954.954,0,0,1,1.191-.893l1.34.149c.149-.149.149-.447.3-.6L14.3,4.019a1.137,1.137,0,0,1-.3-.744.819.819,0,0,1,.447-.744l1.935-1.488a.942.942,0,0,1,1.34.149l.744.893a1.618,1.618,0,0,1,.744-.149l.3-1.042c0-.6.6-.893,1.191-.893l2.53.3a.819.819,0,0,1,.744.447c0,.149.149.447,0,.744V2.53c.3.149.447.3.744.447l1.042-.744a.942.942,0,0,1,1.34.149l1.488,1.786a1.137,1.137,0,0,1,.3.744.819.819,0,0,1-.447.744l-.893.744A.9.9,0,0,1,27.7,7l1.34.149a.819.819,0,0,1,.744.447,6.448,6.448,0,0,1,.149.744l-.3,2.233a.954.954,0,0,1-1.191.893l-1.34-.149a.773.773,0,0,1-.3.6l.744.893a1.137,1.137,0,0,1,.3.744.819.819,0,0,1-.447.744l-1.935,1.488a.942.942,0,0,1-1.34-.149l-.744-.893a1.618,1.618,0,0,1-.744.149l-.149,1.042A1.4,1.4,0,0,1,21.3,16.82Zm-1.34-2.233H20.4l.149-.893a.96.96,0,0,1,.893-.893,3.963,3.963,0,0,0,1.786-.447.933.933,0,0,1,1.191.3l.6.744h.3l-.6-.6a1.111,1.111,0,0,1,0-1.34,6.99,6.99,0,0,0,.893-1.34,1.119,1.119,0,0,1,1.042-.744l1.042.149v-.3L26.656,9.08a.96.96,0,0,1-.893-.893A2.515,2.515,0,0,0,25.316,6.7a.969.969,0,0,1,.3-1.34l.744-.447-.3-.447-.893.6a.9.9,0,0,1-1.191,0,4.954,4.954,0,0,0-1.488-.893,1.179,1.179,0,0,1-.744-1.191l.149-.893h-.447l-.149.893a.96.96,0,0,1-.893.893,3.963,3.963,0,0,0-1.786.447.933.933,0,0,1-1.191-.3l-.6-.744-.3.3.6.6a1.111,1.111,0,0,1,0,1.34,6.99,6.99,0,0,0-.893,1.34.92.92,0,0,1-1.191.744L14,7.442v.3l1.042.149a.96.96,0,0,1,.893.893,2.515,2.515,0,0,0,.447,1.488.969.969,0,0,1-.3,1.34l-.744.447.149.3,1.042-.6a.9.9,0,0,1,1.191,0,16.235,16.235,0,0,0,1.637.893,1.179,1.179,0,0,1,.744,1.191Z" transform="translate(-11.859)" fill="#3cd2c8"/>
          </g>
        </g>
      </g>
      <g id="グループ_370" data-name="グループ 370" transform="translate(5.42 4.87)">
        <g id="グループ_369" data-name="グループ 369">
          <g id="グループ_368" data-name="グループ 368">
            <path id="パス_174" data-name="パス 174" d="M19.072,10.309h-.447a3.476,3.476,0,0,1-2.382-1.488,3.9,3.9,0,0,1-.744-2.53,3.531,3.531,0,0,1,4.019-2.977,3.852,3.852,0,0,1,2.53,1.34,3.9,3.9,0,0,1,.744,2.53,1.052,1.052,0,0,1-2.084-.3,1.094,1.094,0,0,0-.3-.893,1.507,1.507,0,0,0-1.042-.6,1.544,1.544,0,0,0-1.786,1.191,1.094,1.094,0,0,0,.3.893,1.507,1.507,0,0,0,1.042.6,1.888,1.888,0,0,0,.893-.149c.6-.149,1.191,0,1.34.6s0,1.191-.6,1.34A2.515,2.515,0,0,1,19.072,10.309Z" transform="translate(-15.5 -3.272)" fill="#3cd2c8"/>
          </g>
        </g>
      </g>
    </g>
  </g>
</svg>
