<svg id="グループ_337" data-name="グループ 337" xmlns="http://www.w3.org/2000/svg" width="45.738" height="43.517" viewBox="0 0 45.738 43.517">
  <g id="グループ_335" data-name="グループ 335" transform="translate(5.358)">
    <g id="グループ_331" data-name="グループ 331" transform="translate(25.744 14.244)">
      <path id="パス_163" data-name="パス 163" d="M32.164,35.076H24.715a.893.893,0,0,1-.915-.915V11.815a.893.893,0,0,1,.915-.915h7.449a.893.893,0,0,1,.915.915V34.161A.893.893,0,0,1,32.164,35.076Zm-6.534-1.83h5.619V12.73H25.63Z" transform="translate(-23.8 -10.9)" fill="#3cd2c8"/>
    </g>
    <g id="グループ_332" data-name="グループ 332" transform="translate(12.807 24.176)">
      <path id="パス_164" data-name="パス 164" d="M22.264,32.744H14.815a.893.893,0,0,1-.915-.915V19.415a.893.893,0,0,1,.915-.915h7.449a.893.893,0,0,1,.915.915V31.829A.893.893,0,0,1,22.264,32.744Zm-6.4-1.83H21.48V20.33H15.86Z" transform="translate(-13.9 -18.5)" fill="#3cd2c8"/>
    </g>
    <g id="グループ_333" data-name="グループ 333" transform="translate(0 12.513)">
      <path id="パス_165" data-name="パス 165" d="M5.015,11.437a1,1,0,0,1-.653-.261.947.947,0,0,1,0-1.307.873.873,0,0,1,1.307,0,.947.947,0,0,1,0,1.307A1,1,0,0,1,5.015,11.437Z" transform="translate(-4.1 -9.575)" fill="#3cd2c8"/>
    </g>
    <g id="グループ_334" data-name="グループ 334">
      <path id="パス_166" data-name="パス 166" d="M12.464,38.42H5.015a.893.893,0,0,1-.915-.915V16.989a.915.915,0,0,1,1.83,0v19.6h5.619V1.83H5.93v8.1a.915.915,0,0,1-1.83,0V.915A.893.893,0,0,1,5.015,0h7.449a.893.893,0,0,1,.915.915V37.505A.893.893,0,0,1,12.464,38.42Z" transform="translate(-4.1)" fill="#3cd2c8"/>
    </g>
  </g>
  <g id="グループ_336" data-name="グループ 336" transform="translate(0 41.687)">
    <path id="パス_167" data-name="パス 167" d="M44.824,33.73H.915a.915.915,0,0,1,0-1.83H44.824a.915.915,0,0,1,0,1.83Z" transform="translate(0 -31.9)" fill="#3cd2c8"/>
  </g>
</svg>
