<svg id="グループ_395" data-name="グループ 395" xmlns="http://www.w3.org/2000/svg" width="34.266" height="47.217" viewBox="0 0 34.266 47.217">
  <g id="グループ_376" data-name="グループ 376" transform="translate(6.341 13.895)">
    <g id="グループ_375" data-name="グループ 375">
      <g id="グループ_374" data-name="グループ 374">
        <path id="パス_175" data-name="パス 175" d="M25.34,12.189H5.644a.944.944,0,1,1,0-1.889h19.7a.944.944,0,1,1,0,1.889Z" transform="translate(-4.7 -10.3)" fill="#3cd2c8"/>
      </g>
    </g>
  </g>
  <g id="グループ_379" data-name="グループ 379" transform="translate(0 3.373)">
    <g id="グループ_378" data-name="グループ 378">
      <g id="グループ_377" data-name="グループ 377">
        <path id="パス_176" data-name="パス 176" d="M33.322,46.344H.944A.922.922,0,0,1,0,45.4V31.909a.922.922,0,0,1,.944-.944.922.922,0,0,1,.944.944V44.455H32.377V4.389H24.013a.922.922,0,0,1-.944-.944.922.922,0,0,1,.944-.944h9.308a.922.922,0,0,1,.944.944V45.4A.922.922,0,0,1,33.322,46.344Z" transform="translate(0 -2.5)" fill="#3cd2c8"/>
      </g>
    </g>
  </g>
  <g id="グループ_382" data-name="グループ 382" transform="translate(0 3.508)">
    <g id="グループ_381" data-name="グループ 381">
      <g id="グループ_380" data-name="グループ 380">
        <path id="パス_177" data-name="パス 177" d="M.944,26.073A.922.922,0,0,1,0,25.129V3.544A.922.922,0,0,1,.944,2.6H9.983a.922.922,0,0,1,.944.944c0,.54-.4.809-.944.809H1.889v20.64A.962.962,0,0,1,.944,26.073Z" transform="translate(0 -2.6)" fill="#3cd2c8"/>
      </g>
    </g>
  </g>
  <g id="グループ_385" data-name="グループ 385" transform="translate(0 28.431)">
    <g id="グループ_384" data-name="グループ 384">
      <g id="グループ_383" data-name="グループ 383">
        <path id="パス_178" data-name="パス 178" d="M.944,23a1.03,1.03,0,0,1-.675-.27.978.978,0,0,1,0-1.349.9.9,0,0,1,1.349,0,.978.978,0,0,1,0,1.349A1.03,1.03,0,0,1,.944,23Z" transform="translate(0 -21.075)" fill="#3cd2c8"/>
      </g>
    </g>
  </g>
  <g id="グループ_388" data-name="グループ 388" transform="translate(9.308)">
    <g id="グループ_387" data-name="グループ 387">
      <g id="グループ_386" data-name="グループ 386">
        <path id="パス_179" data-name="パス 179" d="M21.47,8.094H7.844A.922.922,0,0,1,6.9,7.15V.944A.922.922,0,0,1,7.844,0H21.47a.922.922,0,0,1,.944.944V7.15A.922.922,0,0,1,21.47,8.094ZM8.789,6.206H20.525V1.889H8.789Z" transform="translate(-6.9)" fill="#3cd2c8"/>
      </g>
    </g>
  </g>
  <g id="グループ_391" data-name="グループ 391" transform="translate(6.341 21.315)">
    <g id="グループ_390" data-name="グループ 390">
      <g id="グループ_389" data-name="グループ 389">
        <path id="パス_180" data-name="パス 180" d="M25.34,17.689H5.644a.944.944,0,0,1,0-1.889h19.7a.944.944,0,0,1,0,1.889Z" transform="translate(-4.7 -15.8)" fill="#3cd2c8"/>
      </g>
    </g>
  </g>
  <g id="グループ_394" data-name="グループ 394" transform="translate(7.414 30.32)">
    <g id="グループ_393" data-name="グループ 393">
      <g id="グループ_392" data-name="グループ 392">
        <path id="パス_181" data-name="パス 181" d="M6.446,31.817a.811.811,0,0,1-.54-.135,1.014,1.014,0,0,1-.27-1.349l4.452-6.88a.742.742,0,0,1,.675-.4,1.166,1.166,0,0,1,.809.4l4.857,6.071,6.88-6.745a.954.954,0,0,1,1.349,1.349l-7.69,7.42a1.03,1.03,0,0,1-.675.27.742.742,0,0,1-.675-.4l-4.587-5.936-3.642,5.8A1.169,1.169,0,0,1,6.446,31.817Z" transform="translate(-5.496 -22.475)" fill="#3cd2c8"/>
      </g>
    </g>
  </g>
</svg>
