<svg xmlns="http://www.w3.org/2000/svg" width="55.044" height="50.308" viewBox="0 0 55.044 50.308">
  <g id="グループ_432" data-name="グループ 432" transform="translate(0 0.025)">
    <g id="グループ_422" data-name="グループ 422" transform="translate(2.685 0.012)">
      <g id="グループ_421" data-name="グループ 421">
        <path id="パス_196" data-name="パス 196" d="M2.844,8.2A1.02,1.02,0,0,1,1.8,7.16V5.519A5.6,5.6,0,0,1,7.319,0H35.96A1.02,1.02,0,0,1,37,1.044,1.02,1.02,0,0,1,35.96,2.088H7.319A3.376,3.376,0,0,0,3.888,5.519V7.16A1.121,1.121,0,0,1,2.844,8.2Z" transform="translate(-1.8)" fill="#3cd2c8"/>
      </g>
    </g>
    <g id="グループ_424" data-name="グループ 424" transform="translate(40.276 -0.025)">
      <g id="グループ_423" data-name="グループ 423">
        <path id="パス_197" data-name="パス 197" d="M28.044,2.1a1.139,1.139,0,0,1-.746-.3c-.3-.149-.3-.448-.3-.746a1.139,1.139,0,0,1,.3-.746,1,1,0,0,1,1.492,0,1.139,1.139,0,0,1,.3.746,1.139,1.139,0,0,1-.3.746C28.492,1.952,28.343,2.1,28.044,2.1Z" transform="translate(-27 0.025)" fill="#3cd2c8"/>
      </g>
    </g>
    <g id="グループ_426" data-name="グループ 426" transform="translate(8.95 0.012)">
      <g id="グループ_425" data-name="グループ 425">
        <path id="パス_198" data-name="パス 198" d="M50.9,8.2H7.044A1.121,1.121,0,0,1,6,7.16,1.02,1.02,0,0,1,7.044,6.116H49.857v-.6a3.376,3.376,0,0,0-3.431-3.431H42.7a1.02,1.02,0,0,1-1.044-1.044A1.153,1.153,0,0,1,42.845,0h3.729a5.6,5.6,0,0,1,5.519,5.519V7.16A1.445,1.445,0,0,1,50.9,8.2Z" transform="translate(-6)" fill="#3cd2c8"/>
      </g>
    </g>
    <g id="グループ_428" data-name="グループ 428" transform="translate(2.685 6.128)">
      <g id="グループ_427" data-name="グループ 427">
        <path id="パス_199" data-name="パス 199" d="M48.491,28.266H7.319A5.6,5.6,0,0,1,1.8,22.746V5.144A1.02,1.02,0,0,1,2.844,4.1,1.02,1.02,0,0,1,3.888,5.144v17.6a3.376,3.376,0,0,0,3.431,3.431H48.491a3.376,3.376,0,0,0,3.431-3.431V5.144a1.044,1.044,0,0,1,2.088,0v17.6A5.6,5.6,0,0,1,48.491,28.266Z" transform="translate(-1.8 -4.1)" fill="#3cd2c8"/>
      </g>
    </g>
    <g id="グループ_429" data-name="グループ 429" transform="translate(15.657 28.647)">
      <path id="パス_200" data-name="パス 200" d="M11.546,40.832a.9.9,0,0,1-.6-.149,1.121,1.121,0,0,1-.3-1.492L22.734,19.65a1.076,1.076,0,0,1,1.79,1.193L12.441,40.384A1.289,1.289,0,0,1,11.546,40.832Z" transform="translate(-10.496 -19.196)" fill="#3cd2c8"/>
    </g>
    <g id="グループ_430" data-name="グループ 430" transform="translate(27.74 28.647)">
      <path id="パス_201" data-name="パス 201" d="M31.729,40.832a1.063,1.063,0,0,1-.9-.448L18.751,20.843a1.076,1.076,0,0,1,1.79-1.193L32.624,39.191a1.157,1.157,0,0,1-.3,1.492A1.128,1.128,0,0,1,31.729,40.832Z" transform="translate(-18.596 -19.196)" fill="#3cd2c8"/>
    </g>
    <g id="グループ_431" data-name="グループ 431" transform="translate(27.746 29.847)">
      <path id="パス_202" data-name="パス 202" d="M19.644,40.437c-.6,0-1.044-.3-1.044-.746V20.746c0-.448.448-.746,1.044-.746s1.044.3,1.044.746V39.691C20.688,40.138,20.241,40.437,19.644,40.437Z" transform="translate(-18.6 -20)" fill="#3cd2c8"/>
    </g>
    <path id="パス_203" data-name="パス 203" d="M2.834,5.083H1.492A1.5,1.5,0,0,1,0,3.592H0A1.5,1.5,0,0,1,1.492,2.1H2.834A1.5,1.5,0,0,1,4.326,3.592h0A1.6,1.6,0,0,1,2.834,5.083Z" transform="translate(0 1.045)" fill="#3cd2c8"/>
  </g>
</svg>
