<svg xmlns="http://www.w3.org/2000/svg" width="42.576" height="42.816" viewBox="0 0 42.576 42.816">
  <g id="グループ_404" data-name="グループ 404" transform="translate(0.009)">
    <g id="グループ_402" data-name="グループ 402" transform="translate(-0.009)">
      <g id="グループ_396" data-name="グループ 396">
        <path id="パス_182" data-name="パス 182" d="M.884,42.69a.962.962,0,0,1-.63-.252.762.762,0,0,1-.126-1.007L5.543,29.846c0-.126.126-.126.126-.252L33.626,1.511A5.126,5.126,0,0,1,37.4,0a4.844,4.844,0,0,1,3.652,1.511,5.322,5.322,0,0,1,0,7.43L12.973,37.024c-.126.126-.126.126-.252.126L1.262,42.565A.463.463,0,0,1,.884,42.69ZM6.929,30.727,2.647,39.92l9.193-4.282L39.8,7.682a3.422,3.422,0,0,0,0-4.911,3.665,3.665,0,0,0-4.911,0Z" transform="translate(0.009)" fill="#3cd2c8"/>
      </g>
      <g id="グループ_397" data-name="グループ 397" transform="translate(3.884 32.459)">
        <path id="パス_183" data-name="パス 183" d="M8.4,32.1a.962.962,0,0,1-.63-.252L3.358,27.318a.841.841,0,0,1,0-1.259.841.841,0,0,1,1.259,0l4.408,4.534a.841.841,0,0,1,0,1.259A.962.962,0,0,1,8.4,32.1Z" transform="translate(-3.075 -25.775)" fill="#3cd2c8"/>
      </g>
      <g id="グループ_398" data-name="グループ 398" transform="translate(32.47 2.235)">
        <path id="パス_184" data-name="パス 184" d="M32.733,9.74a.962.962,0,0,1-.63-.252L26.058,3.318a.841.841,0,0,1,0-1.259.841.841,0,0,1,1.259,0l6.171,6.171a.841.841,0,0,1,0,1.259A1.79,1.79,0,0,1,32.733,9.74Z" transform="translate(-25.775 -1.775)" fill="#3cd2c8"/>
      </g>
      <g id="グループ_399" data-name="グループ 399" transform="translate(24.284 5.258)">
        <path id="パス_185" data-name="パス 185" d="M20.188,17.177a.962.962,0,0,1-.63-.252.841.841,0,0,1,0-1.259L30.766,4.458a.841.841,0,0,1,1.259,0,.841.841,0,0,1,0,1.259L20.818,16.925C20.692,17.177,20.44,17.177,20.188,17.177Z" transform="translate(-19.275 -4.175)" fill="#3cd2c8"/>
      </g>
      <g id="グループ_400" data-name="グループ 400" transform="translate(21.168 19.74)">
        <path id="パス_186" data-name="パス 186" d="M17.682,17.47a.891.891,0,0,1-.63-1.511.841.841,0,0,1,1.259,0,.913.913,0,0,1,0,1.259A2.128,2.128,0,0,1,17.682,17.47Z" transform="translate(-16.8 -15.675)" fill="#3cd2c8"/>
      </g>
      <g id="グループ_401" data-name="グループ 401" transform="translate(6.15 22.888)">
        <path id="パス_187" data-name="パス 187" d="M5.788,31.807a.962.962,0,0,1-.63-.252.841.841,0,0,1,0-1.259L16.87,18.458a.89.89,0,1,1,1.259,1.259L6.292,31.555A.5.5,0,0,1,5.788,31.807Z" transform="translate(-4.875 -18.175)" fill="#3cd2c8"/>
      </g>
    </g>
    <g id="グループ_403" data-name="グループ 403" transform="translate(0.128 40.927)">
      <path id="パス_188" data-name="パス 188" d="M.982,34.389a.882.882,0,0,1,0-1.763L41.657,32.5h0a.882.882,0,0,1,0,1.763L.982,34.389Z" transform="translate(-0.1 -32.5)" fill="#3cd2c8"/>
    </g>
  </g>
</svg>
