<svg xmlns="http://www.w3.org/2000/svg" width="51.594" height="35.609" viewBox="0 0 51.594 35.609">
  <g id="グループ_419" data-name="グループ 419" transform="translate(0 0.025)">
    <g id="グループ_406" data-name="グループ 406" transform="translate(0 0.012)">
      <g id="グループ_405" data-name="グループ 405">
        <path id="パス_189" data-name="パス 189" d="M1.029,8.085A1.1,1.1,0,0,1,0,7.056V5.439A5.523,5.523,0,0,1,5.439,0H33.661A1,1,0,0,1,34.69,1.029a1,1,0,0,1-1.029,1.029H5.439A3.326,3.326,0,0,0,2.058,5.439V7.056A1.1,1.1,0,0,1,1.029,8.085Z" fill="#3cd2c8"/>
      </g>
    </g>
    <g id="グループ_408" data-name="グループ 408" transform="translate(37.042 -0.025)">
      <g id="グループ_407" data-name="グループ 407">
        <path id="パス_190" data-name="パス 190" d="M26.229,2.07a1.123,1.123,0,0,1-.735-.294,1.123,1.123,0,0,1-.294-.735,1.123,1.123,0,0,1,.294-.735.982.982,0,0,1,1.47,0,1.123,1.123,0,0,1,.294.735,1.123,1.123,0,0,1-.294.735A1.123,1.123,0,0,1,26.229,2.07Z" transform="translate(-25.2 0.025)" fill="#3cd2c8"/>
      </g>
    </g>
    <g id="グループ_410" data-name="グループ 410" transform="translate(6.174 0.012)">
      <g id="グループ_409" data-name="グループ 409">
        <path id="パス_191" data-name="パス 191" d="M48.444,8.085H5.229a1.029,1.029,0,1,1,0-2.058H47.415V5.439a3.326,3.326,0,0,0-3.381-3.381H40.36a1,1,0,0,1-1.029-1.029A1.136,1.136,0,0,1,40.507,0h3.675A5.523,5.523,0,0,1,49.62,5.439V7.056A1.424,1.424,0,0,1,48.444,8.085Z" transform="translate(-4.2)" fill="#3cd2c8"/>
      </g>
    </g>
    <g id="グループ_412" data-name="グループ 412" transform="translate(0 6.038)">
      <g id="グループ_411" data-name="グループ 411">
        <path id="パス_192" data-name="パス 192" d="M46.008,27.913H5.439A5.523,5.523,0,0,1,0,22.474V5.129A1,1,0,0,1,1.029,4.1,1,1,0,0,1,2.058,5.129V22.474a3.326,3.326,0,0,0,3.381,3.381h40.57a3.326,3.326,0,0,0,3.381-3.381V5.129a1.029,1.029,0,0,1,2.058,0V22.474A5.523,5.523,0,0,1,46.008,27.913Z" transform="translate(0 -4.1)" fill="#3cd2c8"/>
      </g>
    </g>
    <g id="グループ_414" data-name="グループ 414" transform="translate(28.075 10.595)">
      <g id="グループ_413" data-name="グループ 413">
        <path id="パス_193" data-name="パス 193" d="M28.507,20.429a1.123,1.123,0,0,1-.735-.294L23.51,15.872,22.481,16.9a.707.707,0,0,1-.882.294,1.771,1.771,0,0,1-.735-.735L19.1,8.376c0-.294,0-.735.294-.882a1.08,1.08,0,0,1,.882-.294l7.938,1.764c.441.147.735.294.735.735a.974.974,0,0,1-.294,1.029l-.882.882,4.263,4.263a.982.982,0,0,1,0,1.47l-2.793,2.793A1.123,1.123,0,0,1,28.507,20.429Zm-4.851-7.056a1.123,1.123,0,0,1,.735.294l4.263,4.263,1.323-1.323-4.263-4.263a.982.982,0,0,1,0-1.47l.441-.441L21.6,9.4l1.029,4.557.441-.441A1.52,1.52,0,0,1,23.657,13.374Z" transform="translate(-19.1 -7.2)" fill="#3cd2c8"/>
      </g>
    </g>
    <g id="グループ_416" data-name="グループ 416" transform="translate(24.107 27.646)">
      <g id="グループ_415" data-name="グループ 415">
        <path id="パス_194" data-name="パス 194" d="M17.429,26.738A1,1,0,0,1,16.4,25.709v-5.88a1.029,1.029,0,1,1,2.058,0v5.88A1,1,0,0,1,17.429,26.738Z" transform="translate(-16.4 -18.8)" fill="#3cd2c8"/>
      </g>
    </g>
    <g id="グループ_418" data-name="グループ 418" transform="translate(17.933 33.526)">
      <g id="グループ_417" data-name="グループ 417">
        <path id="パス_195" data-name="パス 195" d="M25.576,24.858H13.229a1.029,1.029,0,0,1,0-2.058H25.576a1.029,1.029,0,0,1,0,2.058Z" transform="translate(-12.2 -22.8)" fill="#3cd2c8"/>
      </g>
    </g>
  </g>
</svg>
