<svg xmlns="http://www.w3.org/2000/svg" width="70" height="70" viewBox="0 0 70 70">
  <g id="グループ_314" data-name="グループ 314" transform="translate(-223 -489)">
    <rect id="長方形_366" data-name="長方形 366" width="70" height="70" transform="translate(223 489)" fill="#fff"/>
    <g id="グループ_80" data-name="グループ 80" transform="translate(231.574 492.1)">
      <g id="グループ_58" data-name="グループ 58" transform="translate(10.457 16.114)">
        <g id="グループ_57" data-name="グループ 57">
          <g id="グループ_56" data-name="グループ 56">
            <path id="パス_16" data-name="パス 16" d="M1410.881,1993.891l-23.946,5.2a1.174,1.174,0,1,1-.5-2.295l23.946-5.2a1.174,1.174,0,0,1,.5,2.295Z" transform="translate(-1385.511 -1991.569)" fill="#3cd2c8"/>
          </g>
        </g>
      </g>
      <g id="グループ_61" data-name="グループ 61" transform="translate(7.519 1.656)">
        <g id="グループ_60" data-name="グループ 60">
          <g id="グループ_59" data-name="グループ 59">
            <path id="パス_17" data-name="パス 17" d="M1428.039,2036.236l-39.3,8.537a1.172,1.172,0,0,1-1.4-.9l-3.554-16.352a1.175,1.175,0,0,1,2.3-.5l3.3,15.207,37.008-8.041-10.574-48.666-10.2,2.216a1.174,1.174,0,1,1-.5-2.295l11.351-2.466a1.175,1.175,0,0,1,1.4.9l11.071,50.961A1.174,1.174,0,0,1,1428.039,2036.236Z" transform="translate(-1383.76 -1982.951)" fill="#5d5d5d"/>
          </g>
        </g>
      </g>
      <g id="グループ_64" data-name="グループ 64" transform="translate(0 7.815)">
        <g id="グループ_63" data-name="グループ 63">
          <g id="グループ_62" data-name="グループ 62">
            <path id="パス_18" data-name="パス 18" d="M1386.418,2017.637a1.176,1.176,0,0,1-1.4-.9l-5.716-26.313a1.175,1.175,0,0,1,.9-1.4l10.955-2.38a1.174,1.174,0,0,1,.5,2.295l-9.806,2.131,5.467,25.165A1.176,1.176,0,0,1,1386.418,2017.637Z" transform="translate(-1379.278 -1986.622)" fill="#5d5d5d"/>
          </g>
        </g>
      </g>
      <g id="グループ_67" data-name="グループ 67" transform="translate(6.619 40.674)">
        <g id="グループ_66" data-name="グループ 66">
          <g id="グループ_65" data-name="グループ 65">
            <path id="パス_19" data-name="パス 19" d="M1384.647,2008.506a1.18,1.18,0,0,1-.888-.156,1.154,1.154,0,0,1-.508-.742,1.134,1.134,0,0,1,.158-.876,1.229,1.229,0,0,1,1.629-.354,1.187,1.187,0,0,1,.508.731,1.16,1.16,0,0,1-.168.89A1.13,1.13,0,0,1,1384.647,2008.506Z" transform="translate(-1383.224 -2006.208)" fill="#5d5d5d"/>
          </g>
        </g>
      </g>
      <g id="グループ_70" data-name="グループ 70" transform="translate(10.455)">
        <g id="グループ_69" data-name="グループ 69">
          <g id="グループ_68" data-name="グループ 68">
            <path id="パス_20" data-name="パス 20" d="M1405.176,1991.844l-16.6,3.607a1.175,1.175,0,0,1-1.4-.9l-1.642-7.558a1.175,1.175,0,0,1,.9-1.4l16.6-3.605a1.174,1.174,0,0,1,1.4.9l1.641,7.558A1.173,1.173,0,0,1,1405.176,1991.844Zm-15.95,1.062,14.3-3.107-1.144-5.265-14.3,3.109Z" transform="translate(-1385.51 -1981.964)" fill="#5d5d5d"/>
          </g>
        </g>
      </g>
      <g id="グループ_73" data-name="グループ 73" transform="translate(12.398 25.046)">
        <g id="グループ_72" data-name="グループ 72">
          <g id="グループ_71" data-name="グループ 71">
            <path id="パス_21" data-name="パス 21" d="M1412.036,1999.215l-23.944,5.2a1.175,1.175,0,0,1-.5-2.3l23.945-5.2a1.174,1.174,0,1,1,.5,2.3Z" transform="translate(-1386.668 -1996.893)" fill="#3cd2c8"/>
          </g>
        </g>
      </g>
      <g id="グループ_76" data-name="グループ 76" transform="translate(13.95 32.96)">
        <g id="グループ_75" data-name="グループ 75">
          <g id="グループ_74" data-name="グループ 74">
            <path id="パス_22" data-name="パス 22" d="M1412.963,2003.933l-23.945,5.2a1.174,1.174,0,1,1-.5-2.295l23.944-5.2a1.175,1.175,0,0,1,.5,2.3Z" transform="translate(-1387.593 -2001.609)" fill="#3cd2c8"/>
          </g>
        </g>
      </g>
      <g id="グループ_79" data-name="グループ 79" transform="translate(15.899 40.674)">
        <g id="グループ_78" data-name="グループ 78">
          <g id="グループ_77" data-name="グループ 77">
            <path id="パス_23" data-name="パス 23" d="M1414.123,2008.53l-23.944,5.2a1.174,1.174,0,0,1-.5-2.3l23.945-5.2a1.174,1.174,0,1,1,.5,2.3Z" transform="translate(-1388.755 -2006.208)" fill="#3cd2c8"/>
          </g>
        </g>
      </g>
    </g>
  </g>
</svg>
