<svg xmlns="http://www.w3.org/2000/svg" width="74.607" height="72.743"><g data-name="グループ 318"><path data-name="長方形 370" fill="#fff" d="M2.525 1.353h70v70h-70z"/><g data-name="グループ 55"><g data-name="グループ 42"><g data-name="グループ 41"><g data-name="グループ 40"><path data-name="パス 11" d="M58.49 63.537l-5.6 2.377a1.395 1.395 0 01-1.828-.739l-1.521-3.582a15.68 15.68 0 01-3.503.03l-1.473 3.627a1.393 1.393 0 01-1.81.768l-5.634-2.262a1.395 1.395 0 01-.773-1.819l1.47-3.615a15.623 15.623 0 01-2.49-2.436l-3.605 1.53a1.395 1.395 0 01-1.829-.739l-2.366-5.575a1.395 1.395 0 01.739-1.829l3.603-1.53a15.638 15.638 0 01-.022-3.484l-3.622-1.453a1.395 1.395 0 01-.772-1.82l2.286-5.624a1.392 1.392 0 011.81-.768l3.632 1.456a15.789 15.789 0 012.454-2.498l-1.52-3.582a1.4 1.4 0 01.738-1.829l5.6-2.377a1.395 1.395 0 011.829.739l1.52 3.581a15.809 15.809 0 013.505-.03l1.473-3.624a1.395 1.395 0 011.811-.769l5.634 2.261a1.395 1.395 0 01.773 1.82l-1.472 3.616a15.652 15.652 0 012.493 2.435l3.602-1.53a1.394 1.394 0 011.829.74l2.367 5.574a1.394 1.394 0 01-.74 1.83l-3.601 1.528a15.637 15.637 0 01.02 3.485l3.624 1.453a1.395 1.395 0 01.772 1.82l-2.286 5.623a1.4 1.4 0 01-1.812.77l-3.63-1.46a15.696 15.696 0 01-2.457 2.5l1.521 3.582a1.394 1.394 0 01-.739 1.829zm-5.406-.736l3.032-1.287-1.4-3.297a1.393 1.393 0 01.485-1.688 13.097 13.097 0 003.322-3.38 1.395 1.395 0 011.675-.512l3.347 1.343 1.236-3.04-3.337-1.34a1.395 1.395 0 01-.855-1.538 12.907 12.907 0 00-.028-4.721 1.4 1.4 0 01.826-1.547l3.316-1.407-1.277-3.008-3.316 1.407a1.4 1.4 0 01-1.686-.48 12.895 12.895 0 00-3.377-3.3 1.394 1.394 0 01-.513-1.682l1.354-3.33-3.045-1.223-1.36 3.34a1.394 1.394 0 01-1.53.849 13.062 13.062 0 00-4.74.043 1.393 1.393 0 01-1.551-.825l-1.4-3.3-3.033 1.288 1.401 3.3a1.393 1.393 0 01-.484 1.688 13.05 13.05 0 00-3.321 3.38 1.392 1.392 0 01-1.674.511l-3.347-1.342-1.236 3.04 3.337 1.339a1.394 1.394 0 01.852 1.538 12.891 12.891 0 00.028 4.722 1.394 1.394 0 01-.824 1.545l-3.315 1.408 1.277 3.008 3.315-1.408a1.394 1.394 0 011.685.481 12.9 12.9 0 003.377 3.3 1.395 1.395 0 01.515 1.683l-1.354 3.33 3.045 1.223 1.359-3.341a1.389 1.389 0 011.529-.849 13.097 13.097 0 004.74-.042 1.393 1.393 0 011.55.824z" fill="#5d5d5d"/></g></g></g><g data-name="グループ 45"><g data-name="グループ 44"><g data-name="グループ 43"><path data-name="パス 12" d="M45.554 51.718a1.38 1.38 0 01-1.068.019 1.4 1.4 0 01-.769-1.81 1.429 1.429 0 011.81-.768 1.363 1.363 0 01.767.735 1.394 1.394 0 01.002 1.076 1.35 1.35 0 01-.742.748z" fill="#3cd2c8"/></g></g></g><g data-name="グループ 48"><g data-name="グループ 47"><g data-name="グループ 46"><path data-name="パス 13" d="M50.292 52.007a6.804 6.804 0 01-1.747.48 1.395 1.395 0 11-.368-2.766 3.99 3.99 0 001.025-.282 3.912 3.912 0 10-5.15-2.062 1.395 1.395 0 11-2.569 1.09 6.725 6.725 0 118.81 3.543z" fill="#3cd2c8"/></g></g></g><g data-name="グループ 51"><g data-name="グループ 50"><g data-name="グループ 49"><path data-name="パス 14" d="M25.179 36.905a1.386 1.386 0 01-.441.108l-4.676.343a1.4 1.4 0 01-1.494-1.282l-.214-2.752a12.58 12.58 0 01-2.184-.72l-1.808 2.092a1.395 1.395 0 01-1.961.15l-3.563-3.045a1.4 1.4 0 01-.15-1.972l1.802-2.085a12.423 12.423 0 01-1.036-2.027l-2.779.2a1.4 1.4 0 01-1.492-1.28l-.362-4.648a1.409 1.409 0 01.33-1.016 1.39 1.39 0 01.955-.482l2.767-.203a12.417 12.417 0 01.708-2.149l-2.109-1.803a1.392 1.392 0 01-.149-1.972l3.05-3.529a1.39 1.39 0 011.961-.148l2.12 1.81a12.63 12.63 0 012.038-1.027L16.28 6.73a1.393 1.393 0 011.288-1.499l4.674-.344a1.393 1.393 0 011.492 1.282l.216 2.75a12.754 12.754 0 012.185.72l1.809-2.09a1.392 1.392 0 011.96-.15l3.56 3.042a1.393 1.393 0 01.152 1.971L31.813 14.5a12.244 12.244 0 011.038 2.027l2.777-.2a1.393 1.393 0 011.492 1.281l.362 4.648a1.394 1.394 0 01-1.288 1.499l-2.768.203a12.177 12.177 0 01-.707 2.148l2.11 1.804a1.4 1.4 0 01.148 1.971l-3.05 3.529a1.394 1.394 0 01-1.96.149l-2.12-1.81a12.429 12.429 0 01-2.039 1.025l.214 2.742a1.393 1.393 0 01-.329 1.017 1.412 1.412 0 01-.514.373zm-3.937-2.432l1.897-.14-.19-2.42a1.387 1.387 0 011.003-1.448 9.692 9.692 0 003.154-1.585 1.4 1.4 0 011.747.052l1.877 1.605 1.226-1.418-1.866-1.599a1.39 1.39 0 01-.317-1.73 9.562 9.562 0 001.1-3.332 1.4 1.4 0 011.279-1.205l2.448-.179-.146-1.864-2.456.18a1.395 1.395 0 01-1.44-.994 9.67 9.67 0 00-1.607-3.138 1.4 1.4 0 01.051-1.761l1.592-1.843-1.44-1.231-1.604 1.854a1.392 1.392 0 01-1.722.313 9.787 9.787 0 00-3.366-1.108 1.4 1.4 0 01-1.203-1.275l-.19-2.435-1.896.14.19 2.42a1.4 1.4 0 01-1.004 1.448 9.705 9.705 0 00-3.154 1.586 1.385 1.385 0 01-1.747-.052l-1.876-1.603-1.225 1.419 1.864 1.593a1.393 1.393 0 01.317 1.73 9.548 9.548 0 00-1.1 3.332 1.4 1.4 0 01-1.28 1.206l-2.447.178.141 1.869 2.458-.182a1.4 1.4 0 011.44.995 9.675 9.675 0 001.607 3.137 1.394 1.394 0 01-.052 1.761l-1.594 1.843 1.444 1.235 1.604-1.856a1.395 1.395 0 011.722-.313 9.782 9.782 0 003.367 1.11 1.4 1.4 0 011.204 1.275z" fill="#5d5d5d"/></g></g></g><g data-name="グループ 54"><g data-name="グループ 53"><g data-name="グループ 52"><path data-name="パス 15" d="M23.326 26.161a5.48 5.48 0 113.315-5.448 5.467 5.467 0 01-3.315 5.448zm-3.252-7.512a2.667 2.667 0 00-1.624 2.664 2.713 2.713 0 102.49-2.874 2.77 2.77 0 00-.866.21z" fill="#3cd2c8"/></g></g></g></g></g></svg>