<svg xmlns="http://www.w3.org/2000/svg" width="70" height="70"><g data-name="グループ 321"><path data-name="長方形 373" fill="#fff" d="M0 0h70v70H0z"/><g data-name="グループ 159"><g data-name="グループ 151"><path data-name="パス 51" d="M8.703 23.861a1.3 1.3 0 01-1.3-1.3v-9.839a1.3 1.3 0 011.3-1.3h43.2a1.3 1.3 0 010 2.6h-41.9v8.54a1.3 1.3 0 01-1.3 1.299z" fill="#5d5d5d"/></g><g data-name="グループ 152"><path data-name="パス 52" d="M8.699 29.129a1.3 1.3 0 01-.921-2.22 1.344 1.344 0 011.843 0 1.3 1.3 0 010 1.831 1.292 1.292 0 01-.922.389z" fill="#5d5d5d"/></g><g data-name="グループ 153"><path data-name="パス 53" d="M61.127 40.436H8.703a1.3 1.3 0 01-1.3-1.3v-6.048a1.3 1.3 0 012.6 0v4.75H59.83V12.723a1.3 1.3 0 112.6 0v26.414a1.3 1.3 0 01-1.303 1.299z" fill="#5d5d5d"/></g><g data-name="グループ 154"><path data-name="パス 54" d="M61.127 14.022a1.3 1.3 0 01-1.3-1.3V4.991H10v7.731a1.3 1.3 0 11-2.6 0v-9.03a1.3 1.3 0 011.3-1.3h52.424a1.3 1.3 0 011.3 1.3v9.03a1.3 1.3 0 01-1.297 1.3z" fill="#5d5d5d"/></g><g data-name="グループ 155"><path data-name="パス 55" d="M34.916 67.312a1.3 1.3 0 01-1.3-1.3V39.136a1.3 1.3 0 012.6 0v26.876a1.3 1.3 0 01-1.3 1.3z" fill="#5d5d5d"/></g><g data-name="グループ 156"><path data-name="パス 56" d="M15.37 67.313a1.3 1.3 0 01-.776-2.338L34.14 50.413a1.3 1.3 0 011.551 2.083l-19.547 14.56a1.293 1.293 0 01-.774.257z" fill="#5d5d5d"/></g><g data-name="グループ 157"><path data-name="パス 57" d="M54.464 67.313a1.283 1.283 0 01-.774-.258l-19.549-14.56a1.3 1.3 0 111.551-2.083l19.549 14.562a1.3 1.3 0 01-.776 2.338z" fill="#5d5d5d"/></g><g data-name="グループ 158" fill="#3cd2c8"><path data-name="パス 58" d="M31.645 33.626a1.74 1.74 0 01-1.741-1.741v-8.024a1.74 1.74 0 113.479 0v8.024a1.739 1.739 0 01-1.738 1.741z"/><path data-name="パス 59" d="M25.387 33.627a1.74 1.74 0 01-1.741-1.741v-5.341a1.741 1.741 0 113.482 0v5.341a1.739 1.739 0 01-1.741 1.741z"/><path data-name="パス 60" d="M38.045 33.626a1.74 1.74 0 01-1.741-1.741V20.459a1.74 1.74 0 113.48 0v11.426a1.739 1.739 0 01-1.739 1.741z"/><path data-name="パス 61" d="M44.446 33.626a1.74 1.74 0 01-1.74-1.741V18.368a1.74 1.74 0 013.479 0v13.517a1.739 1.739 0 01-1.739 1.741z"/></g></g></g></svg>