<svg xmlns="http://www.w3.org/2000/svg" width="70" height="70"><g data-name="グループ 314"><path data-name="長方形 366" fill="#fff" d="M0 0h70v70H0z"/><g data-name="グループ 80"><g data-name="グループ 58"><g data-name="グループ 57"><g data-name="グループ 56"><path data-name="パス 16" d="M44.401 21.536l-23.946 5.2a1.174 1.174 0 11-.5-2.295l23.946-5.2a1.174 1.174 0 01.5 2.295z" fill="#3cd2c8"/></g></g></g><g data-name="グループ 61"><g data-name="グループ 60"><g data-name="グループ 59"><path data-name="パス 17" d="M60.372 58.041l-39.3 8.537a1.172 1.172 0 01-1.4-.9l-3.554-16.352a1.177 1.177 0 012.3-.5l3.3 15.207 37.008-8.041L48.152 7.326l-10.2 2.216a1.174 1.174 0 11-.5-2.295l11.351-2.466a1.175 1.175 0 011.4.9l11.071 50.961a1.174 1.174 0 01-.902 1.399z" fill="#5d5d5d"/></g></g></g><g data-name="グループ 64"><g data-name="グループ 63"><g data-name="グループ 62"><path data-name="パス 18" d="M15.714 41.93a1.176 1.176 0 01-1.4-.9L8.598 14.717a1.175 1.175 0 01.9-1.4l10.955-2.38a1.174 1.174 0 01.5 2.295l-9.806 2.131 5.467 25.165a1.176 1.176 0 01-.9 1.402z" fill="#5d5d5d"/></g></g></g><g data-name="グループ 67"><g data-name="グループ 66"><g data-name="グループ 65"><path data-name="パス 19" d="M16.616 46.072a1.18 1.18 0 01-.888-.156 1.154 1.154 0 01-.508-.742 1.134 1.134 0 01.158-.876 1.229 1.229 0 011.629-.354 1.187 1.187 0 01.508.731 1.16 1.16 0 01-.168.89 1.13 1.13 0 01-.731.507z" fill="#5d5d5d"/></g></g></g><g data-name="グループ 70"><g data-name="グループ 69"><g data-name="グループ 68"><path data-name="パス 20" d="M38.695 12.98l-16.6 3.607a1.175 1.175 0 01-1.4-.9l-1.642-7.558a1.175 1.175 0 01.9-1.4l16.6-3.605a1.174 1.174 0 011.4.9l1.641 7.558a1.173 1.173 0 01-.899 1.398zm-15.95 1.062l14.3-3.107-1.144-5.265-14.3 3.109z" fill="#5d5d5d"/></g></g></g><g data-name="グループ 73"><g data-name="グループ 72"><g data-name="グループ 71"><path data-name="パス 21" d="M46.34 30.468l-23.944 5.2a1.177 1.177 0 01-.5-2.3l23.945-5.2a1.177 1.177 0 11.5 2.3z" fill="#3cd2c8"/></g></g></g><g data-name="グループ 76"><g data-name="グループ 75"><g data-name="グループ 74"><path data-name="パス 22" d="M47.894 38.384l-23.945 5.2a1.174 1.174 0 11-.5-2.295l23.944-5.2a1.177 1.177 0 01.5 2.3z" fill="#3cd2c8"/></g></g></g><g data-name="グループ 79"><g data-name="グループ 78"><g data-name="グループ 77"><path data-name="パス 23" d="M49.841 46.096l-23.944 5.2a1.177 1.177 0 01-.5-2.3l23.945-5.2a1.177 1.177 0 11.5 2.3z" fill="#3cd2c8"/></g></g></g></g></g></svg>