<svg xmlns="http://www.w3.org/2000/svg" width="70" height="70"><g data-name="グループ 317"><path data-name="長方形 369" fill="#fff" d="M0 0h70v70H0z"/><g data-name="グループ 179"><g data-name="グループ 111"><g data-name="グループ 83"><g data-name="グループ 82"><g data-name="グループ 81"><path data-name="パス 24" d="M62.261 60.992h-35.07a1.125 1.125 0 01-1.126-1.125V39.085a1.126 1.126 0 012.251 0v19.656h32.819V20.223l-10.16-10.095H28.319v19.08a1.126 1.126 0 11-2.251 0V9.002a1.125 1.125 0 011.126-1.125h24.247a1.128 1.128 0 01.793.326l10.823 10.753a1.121 1.121 0 01.333.8v40.112a1.125 1.125 0 01-1.129 1.124z" fill="#5d5d5d"/></g></g></g><g data-name="グループ 86"><g data-name="グループ 85"><g data-name="グループ 84"><path data-name="パス 25" d="M27.187 35.272a1.13 1.13 0 01-.788-.328 1.142 1.142 0 01-.338-.8 1.126 1.126 0 011.925-.8 1.14 1.14 0 010 1.6 1.179 1.179 0 01-.799.328z" fill="#5d5d5d"/></g></g></g><g data-name="グループ 89"><g data-name="グループ 88"><g data-name="グループ 87"><path data-name="パス 26" d="M62.261 20.881H51.443a1.126 1.126 0 110-2.251h10.823a1.126 1.126 0 110 2.251z" fill="#5d5d5d"/></g></g></g><g data-name="グループ 92"><g data-name="グループ 91"><g data-name="グループ 90"><path data-name="パス 27" d="M51.443 20.881a1.128 1.128 0 01-1.127-1.126V9.002a1.127 1.127 0 012.253 0v10.753a1.127 1.127 0 01-1.126 1.126z" fill="#5d5d5d"/></g></g></g><g data-name="グループ 95"><g data-name="グループ 94"><g data-name="グループ 93"><path data-name="パス 28" d="M44.726 22.08H33.06a1.126 1.126 0 110-2.251h11.666a1.126 1.126 0 010 2.251z" fill="#3cd2c8"/></g></g></g><g data-name="グループ 98"><g data-name="グループ 97"><g data-name="グループ 96"><path data-name="パス 29" d="M53.855 29.568H33.06a1.125 1.125 0 110-2.251h20.795a1.125 1.125 0 110 2.251z" fill="#3cd2c8"/></g></g></g><g data-name="グループ 101"><g data-name="グループ 100"><g data-name="グループ 99"><path data-name="パス 30" d="M53.855 37.051H33.06a1.125 1.125 0 110-2.251h20.795a1.125 1.125 0 110 2.251z" fill="#3cd2c8"/></g></g></g><g data-name="グループ 104"><g data-name="グループ 103"><g data-name="グループ 102"><path data-name="パス 31" d="M53.855 44.535H33.06a1.126 1.126 0 110-2.251h20.795a1.126 1.126 0 110 2.251z" fill="#3cd2c8"/></g></g></g><g data-name="グループ 107"><g data-name="グループ 106"><g data-name="グループ 105"><path data-name="パス 32" d="M38.894 52.02h-5.833a1.126 1.126 0 110-2.252h5.833a1.126 1.126 0 010 2.252z" fill="#3cd2c8"/></g></g></g><g data-name="グループ 110"><g data-name="グループ 109"><g data-name="グループ 108"><path data-name="パス 33" d="M53.854 52.02h-3.343a1.126 1.126 0 010-2.252h3.343a1.126 1.126 0 010 2.252z" fill="#3cd2c8"/></g></g></g></g><g data-name="グループ 124"><g data-name="グループ 114"><g data-name="グループ 113"><g data-name="グループ 112"><path data-name="パス 34" d="M16.292 57.272a1.124 1.124 0 01-.917-.475 24.934 24.934 0 01-4.61-14.529v-24.3a5.529 5.529 0 1111.055 0v11.457a1.126 1.126 0 01-2.251 0V17.968a3.279 3.279 0 10-6.552 0v24.3a22.733 22.733 0 003.276 11.828 22.729 22.729 0 003.277-11.828v-8.267a1.126 1.126 0 012.251 0v8.267a24.931 24.931 0 01-4.61 14.529 1.125 1.125 0 01-.919.475z" fill="#5d5d5d"/></g></g></g><g data-name="グループ 117"><g data-name="グループ 116"><g data-name="グループ 115"><path data-name="パス 35" d="M16.296 60.991a1.126 1.126 0 01-1.126-1.125v-3.719a1.126 1.126 0 012.251 0v3.719a1.125 1.125 0 01-1.125 1.125z" fill="#5d5d5d"/></g></g></g><g data-name="グループ 120"><g data-name="グループ 119"><g data-name="グループ 118"><path data-name="パス 36" d="M16.296 14.554a1.127 1.127 0 01-1.126-1.126V9.001a1.126 1.126 0 012.251 0v4.427a1.126 1.126 0 01-1.125 1.126z" fill="#5d5d5d"/></g></g></g><g data-name="グループ 123"><g data-name="グループ 122"><g data-name="グループ 121"><path data-name="パス 37" d="M8.232 34.033a1.127 1.127 0 01-1.126-1.125V21.176a1.127 1.127 0 011.126-1.126h12.467a1.126 1.126 0 010 2.251H9.358v10.607a1.126 1.126 0 01-1.126 1.125z" fill="#5d5d5d"/></g></g></g></g></g></g></svg>