<svg xmlns="http://www.w3.org/2000/svg" width="70" height="70"><g data-name="グループ 322"><path data-name="長方形 372" fill="#fff" d="M0 0h70v70H0z"/><g data-name="グループ 313"><g data-name="グループ 307"><path data-name="パス 154" d="M26.98 19.212a1.334 1.334 0 01-1.324-1.324 1.3 1.3 0 01.4-.94 1.37 1.37 0 011.867 0 1.327 1.327 0 010 1.867 1.323 1.323 0 01-.943.397z" fill="#5d5d5d"/></g><g data-name="グループ 308"><path data-name="パス 155" d="M35.438 54.032a15.558 15.558 0 1115.506-15.559 15.55 15.55 0 01-15.506 15.559zm0-28.467a12.909 12.909 0 1012.857 12.908 12.9 12.9 0 00-12.857-12.908z" fill="#5d5d5d"/></g><g data-name="グループ 309"><path data-name="パス 156" d="M35.438 47.41a8.814 8.814 0 01-4.281-1.109 1.324 1.324 0 111.286-2.314 6.174 6.174 0 002.995.774 6.274 6.274 0 10-5.753-3.862 1.324 1.324 0 01-2.446 1.014 8.876 8.876 0 118.2 5.5z" fill="#3cd2c8"/></g><path data-name="パス 157" d="M67.553 16.56h-8.867v-4.911h2.94a1.324 1.324 0 100-2.648h-8.528a1.324 1.324 0 100 2.648h2.94v4.911H31.382a1.324 1.324 0 100 2.648h34.846v38.53H4.648v-38.53h17.937a1.324 1.324 0 000-2.648H3.324A1.323 1.323 0 002 17.884v41.178a1.324 1.324 0 001.324 1.324h64.229a1.323 1.323 0 001.324-1.324V17.884a1.323 1.323 0 00-1.324-1.324z" fill="#5d5d5d"/><g data-name="グループ 312"><g data-name="グループ 310"><path data-name="パス 158" d="M17.583 25.565H9.588a1.324 1.324 0 110-2.648h7.995a1.324 1.324 0 110 2.648z" fill="#3cd2c8"/></g><g data-name="グループ 311"><path data-name="パス 159" d="M61.291 25.565h-8a1.324 1.324 0 110-2.648h8a1.324 1.324 0 110 2.648z" fill="#3cd2c8"/></g></g></g></g></svg>