<svg xmlns="http://www.w3.org/2000/svg" width="70" height="70"><g data-name="グループ 324"><path data-name="長方形 371" fill="#fff" d="M0 0h70v70H0z"/><g data-name="グループ 170"><g data-name="グループ 39"><g data-name="グループ 34"><path data-name="パス 6" d="M67.752 42.475h-60.3a1.347 1.347 0 01-1.4-1.3 1.43 1.43 0 011.4-1.4h60.3a1.367 1.367 0 011.4 1.4 1.288 1.288 0 01-1.4 1.3z" fill="#3cd2c8"/></g><g data-name="グループ 35"><path data-name="パス 7" d="M67.8 48.8H1.4A1.367 1.367 0 010 47.4v-37A1.367 1.367 0 011.4 9h43.7a1.4 1.4 0 110 2.8H2.7V46h63.7V11.7h-9.5a1.367 1.367 0 01-1.4-1.4A1.344 1.344 0 0156.9 9h10.8a1.367 1.367 0 011.4 1.4v37a1.347 1.347 0 01-1.3 1.4z" fill="#5d5d5d"/></g><g data-name="グループ 36"><path data-name="パス 8" d="M51.045 11.723a1.284 1.284 0 01-1-.4 1.086 1.086 0 01-.4-.9 1.284 1.284 0 01.4-1 1.344 1.344 0 011.9 1.9 1.086 1.086 0 01-.9.4z" fill="#3cd2c8"/></g><g data-name="グループ 37"><path data-name="パス 9" d="M34.594 54.729a1.347 1.347 0 01-1.4-1.3v-6a1.4 1.4 0 112.8 0v6a1.493 1.493 0 01-1.4 1.3z" fill="#5d5d5d"/></g><g data-name="グループ 38"><path data-name="パス 10" d="M42.854 60.334h-16.6a1.347 1.347 0 01-1.4-1.3 6.936 6.936 0 016.9-7h5.5a6.914 6.914 0 016.9 6.9 1.236 1.236 0 01-1.3 1.4zm-15-2.7h13.5a4.209 4.209 0 00-4-2.8h-5.6a3.877 3.877 0 00-3.9 2.8z" fill="#5d5d5d"/></g></g><g data-name="グループ 323" style="isolation:isolate" fill="#3cd2c8"><path data-name="パス 160" d="M27.26 32.9a3.3 3.3 0 01-.7-2.1l1.2-.3a3.313 3.313 0 00.4 1.5 1 1 0 001 .6.984.984 0 00.8-.3 1.135 1.135 0 00.3-.8 1.689 1.689 0 00-.3-1 3.24 3.24 0 00-.8-.9l-1.6-1.4a2.757 2.757 0 01-.7-.9 3.73 3.73 0 01-.2-1.2 2.089 2.089 0 012.3-2.3 2.2 2.2 0 011.7.6 3.041 3.041 0 01.7 1.9l-1.2.3a2.269 2.269 0 00-.3-1.3 1.1 1.1 0 00-1-.5 1.135 1.135 0 00-.8.3.984.984 0 00-.3.8 1.483 1.483 0 00.1.7 2.651 2.651 0 00.5.6l1.6 1.4a5.3 5.3 0 011 1.2 2.41 2.41 0 01.4 1.5 2.089 2.089 0 01-2.3 2.3 2.41 2.41 0 01-1.8-.7z"/><path data-name="パス 161" d="M32.56 23.8h3.8v1h-2.4V28h2v1h-2v3.6h2.4v1h-3.8z"/><path data-name="パス 162" d="M37.86 32.8a3.715 3.715 0 01-.6-2.3v-3.7a3.715 3.715 0 01.6-2.3 2.9 2.9 0 014 0 3.715 3.715 0 01.6 2.3v3.7a3.715 3.715 0 01-.6 2.3 2.9 2.9 0 01-4 0zm3.1-.7a2.269 2.269 0 00.3-1.3v-4.3a2.269 2.269 0 00-.3-1.3 1.053 1.053 0 00-1-.4c-.5 0-.9.1-1 .4a2.269 2.269 0 00-.3 1.3v4.3a2.269 2.269 0 00.3 1.3 1.053 1.053 0 001 .4 1.159 1.159 0 001-.4z"/></g></g></g></svg>