<svg xmlns="http://www.w3.org/2000/svg" width="70" height="70"><g data-name="グループ 316"><path data-name="長方形 368" fill="#fff" d="M0 0h70v70H0z"/><g data-name="グループ 218"><g data-name="グループ 188"><g data-name="グループ 187"><g data-name="グループ 186"><path data-name="パス 66" d="M52.182 53.16a1.179 1.179 0 01-.836-.346L18.813 20.371a1.182 1.182 0 011.669-1.675l32.535 32.443a1.183 1.183 0 01-.835 2.021z" fill="#3cd2c8"/></g></g></g><g data-name="グループ 195"><g data-name="グループ 191"><g data-name="グループ 190"><g data-name="グループ 189"><path data-name="パス 67" d="M48.55 20.712a1.182 1.182 0 01-.834-.345l-4.647-4.635a1.182 1.182 0 111.669-1.674l4.649 4.634a1.183 1.183 0 01-.836 2.021z" fill="#3cd2c8"/></g></g></g><g data-name="グループ 194"><g data-name="グループ 193"><g data-name="グループ 192"><path data-name="パス 68" d="M19.564 49.619a1.18 1.18 0 01-.835-.344l-4.647-4.636a1.182 1.182 0 111.669-1.674l4.647 4.635a1.182 1.182 0 01-.835 2.019z" fill="#3cd2c8"/></g></g></g></g><g data-name="グループ 211"><g data-name="グループ 198"><g data-name="グループ 197"><g data-name="グループ 196"><path data-name="パス 69" d="M28.014 38.117a1.183 1.183 0 01-.838-.348l-16.966-17a6.368 6.368 0 010-8.98l1.7-1.7a6.331 6.331 0 018.969 0l18.711 18.75a1.183 1.183 0 01-1.674 1.671L19.203 11.76a4.06 4.06 0 00-5.619 0l-1.7 1.7a4 4 0 000 5.641L28.85 36.107a1.182 1.182 0 01-.838 2.017z" fill="#5d5d5d"/></g></g></g><g data-name="グループ 201"><g data-name="グループ 200"><g data-name="グループ 199"><path data-name="パス 70" d="M30.625 40.741a1.215 1.215 0 01-1.182-1.182 1.183 1.183 0 01.356-.84 1.221 1.221 0 011.666 0 1.185 1.185 0 010 1.667 1.2 1.2 0 01-.84.355z" fill="#5d5d5d"/></g></g></g><g data-name="グループ 204"><g data-name="グループ 203"><g data-name="グループ 202"><path data-name="パス 71" d="M60.897 62.064a1.179 1.179 0 01-.365-.058l-13.3-4.314a1.168 1.168 0 01-.473-.291l-14.356-14.39a1.183 1.183 0 111.674-1.671l14.155 14.189 10.824 3.512-3.507-10.854L37.911 30.5a1.182 1.182 0 011.674-1.669l17.841 17.886a1.2 1.2 0 01.287.473l4.3 13.327a1.182 1.182 0 01-1.125 1.546z" fill="#5d5d5d"/></g></g></g><g data-name="グループ 207"><g data-name="グループ 206"><g data-name="グループ 205"><path data-name="パス 72" d="M47.602 57.75a1.182 1.182 0 01-.838-2.017l8.99-9.014a1.183 1.183 0 011.676 1.671l-8.992 9.013a1.18 1.18 0 01-.836.347z" fill="#5d5d5d"/></g></g></g><g data-name="グループ 210"><g data-name="グループ 209"><g data-name="グループ 208"><path data-name="パス 73" d="M15.152 25.223a1.183 1.183 0 01-.838-2.019l8.992-9.013a1.183 1.183 0 111.674 1.671l-8.992 9.012a1.18 1.18 0 01-.836.349z" fill="#5d5d5d"/></g></g></g></g><g data-name="グループ 214"><g data-name="グループ 213"><g data-name="グループ 212"><path data-name="パス 74" d="M46.226 36.937a1.183 1.183 0 01-.836-2.02l16.913-16.865-9.945-9.918-17.584 17.535a1.183 1.183 0 01-1.671-1.674L51.521 5.627a1.184 1.184 0 011.671 0l11.619 11.588a1.181 1.181 0 010 1.675L47.06 36.59a1.182 1.182 0 01-.834.347z" fill="#5d5d5d"/></g></g></g><g data-name="グループ 217"><g data-name="グループ 216"><g data-name="グループ 215"><path data-name="パス 75" d="M18.081 65a1.176 1.176 0 01-.835-.344L5.625 53.067a1.18 1.18 0 010-1.674l18.267-18.214a1.182 1.182 0 111.669 1.674L8.134 52.231l9.947 9.918 17.593-17.543a1.182 1.182 0 111.669 1.674L18.916 64.656a1.18 1.18 0 01-.835.344z" fill="#5d5d5d"/></g></g></g></g></g></svg>