<svg xmlns="http://www.w3.org/2000/svg" width="61.211" height="58.992"><g data-name="グループ 302" fill="#d3d3d3"><path data-name="パス 140" d="M59.126 31.522a1.247 1.247 0 00-.369.869 1.2 1.2 0 00.369.869 1.18 1.18 0 00.855.355 1.211 1.211 0 00.869-.355 1.226 1.226 0 000-1.726 1.251 1.251 0 00-1.724-.012z"/><path data-name="パス 141" d="M59.987 7.174h-8.973a1.129 1.129 0 00-.3.061V4.384a4.386 4.386 0 00-8.772 0v2.8c-.023 0-.042-.014-.065-.014H19.335c-.024 0-.042.012-.065.014v-2.8a4.387 4.387 0 00-8.774 0v2.851a1.131 1.131 0 00-.3-.061H1.222A1.225 1.225 0 00-.002 8.398v49.368a1.226 1.226 0 001.224 1.224h43.443a1.232 1.232 0 00.47-.095 1.247 1.247 0 00.4-.266L60.853 43.31a1.215 1.215 0 00.3-1.177 1.154 1.154 0 00.054-.268V38.15a1.224 1.224 0 10-2.448 0v3.069h-14.1a1.224 1.224 0 00-1.222 1.224v5.527H22.826a1.224 1.224 0 000 2.448h20.611v6.121h-41V23.004h56.315v3.627a1.224 1.224 0 002.448 0V8.395a1.224 1.224 0 00-1.213-1.221zm-14.094 36.5h11.139l-11.139 11.14zm-1.5-39.286a1.938 1.938 0 113.875 0v8.027a1.938 1.938 0 11-3.875 0zm-31.445 0a1.939 1.939 0 013.877 0v8.027a1.939 1.939 0 01-3.877 0zm-10.5 16.174V9.624h7.75a1.213 1.213 0 00.3-.06v2.849a4.387 4.387 0 108.774 0v-2.8c.023 0 .04.012.065.012h22.542c.023 0 .042-.012.065-.012v2.8a4.386 4.386 0 108.772 0V9.564a1.21 1.21 0 00.3.06h7.749V20.56z"/><path data-name="パス 142" d="M12.088 47.974a1.224 1.224 0 100 2.448h4.624a1.224 1.224 0 100-2.448z"/></g></svg>