<svg xmlns="http://www.w3.org/2000/svg" width="61.211" height="57.771"><g data-name="グループ 303" fill="#d3d3d3"><path data-name="パス 143" d="M21.84 29.795a1.287 1.287 0 00.869-.355 1.242 1.242 0 000-1.738 1.224 1.224 0 00-2.094.869 1.233 1.233 0 001.224 1.224z"/><path data-name="パス 144" d="M60.851 12.053L49.081.362c-.025-.024-.058-.035-.086-.058a1.171 1.171 0 00-.306-.2 1.221 1.221 0 00-.47-.1H21.847a1.225 1.225 0 00-1.224 1.224v21.979a1.224 1.224 0 002.448 0V2.448H46.99v10.471a1.224 1.224 0 001.224 1.224h10.549v41.18h-35.7V33.938a1.224 1.224 0 10-2.448 0v22.6a1.224 1.224 0 001.224 1.224H59.99a1.224 1.224 0 001.224-1.224V12.91a1.234 1.234 0 00-.36-.866zM49.438 4.166l7.58 7.529h-7.58z"/><path data-name="パス 145" d="M28.223 15.455h12.688a1.224 1.224 0 000-2.448H28.223a1.224 1.224 0 100 2.448z"/><path data-name="パス 146" d="M28.223 23.592h22.618a1.225 1.225 0 000-2.45H28.223a1.225 1.225 0 000 2.45z"/><path data-name="パス 147" d="M28.223 31.734h22.618a1.224 1.224 0 000-2.448H28.223a1.224 1.224 0 100 2.448z"/><path data-name="パス 148" d="M28.223 39.873h22.618a1.225 1.225 0 000-2.45H28.223a1.225 1.225 0 000 2.45z"/><path data-name="パス 149" d="M28.223 48.012h6.345a1.224 1.224 0 100-2.448h-6.345a1.224 1.224 0 100 2.448z"/><path data-name="パス 150" d="M50.844 45.564h-3.636a1.224 1.224 0 100 2.448h3.636a1.224 1.224 0 000-2.448z"/><path data-name="パス 151" d="M11.219 4.946V1.225a1.224 1.224 0 00-2.448 0v3.721a6.134 6.134 0 00-4.789 6.029v2.267H1.224A1.224 1.224 0 000 14.466v12.758a1.224 1.224 0 102.448 0V15.69h1.534v21.718a27.12 27.12 0 004.789 15.457v3.683a1.224 1.224 0 102.448 0v-3.683a27.11 27.11 0 004.787-15.457v-8.991a1.224 1.224 0 00-2.448 0v8.991a24.719 24.719 0 01-3.562 12.865 24.726 24.726 0 01-3.562-12.865V15.69h7.125v7.748a1.224 1.224 0 102.448 0V10.975a6.132 6.132 0 00-4.788-6.029zm-4.787 8.3v-2.267a3.565 3.565 0 117.125 0v2.267z"/></g></svg>