<svg xmlns="http://www.w3.org/2000/svg" width="57.215" height="61.211"><g data-name="グループ 304" fill="#d3d3d3"><path data-name="パス 152" d="M9.619 3.898a1.221 1.221 0 00.869-2.081 1.267 1.267 0 00-1.726-.012 1.218 1.218 0 00.857 2.093z"/><path data-name="パス 153" d="M51.188 49.536a12.392 12.392 0 00-8.356-20.187V8.941c0-5.806-11.034-8.94-21.416-8.94a51.262 51.262 0 00-7.408.523 1.224 1.224 0 10.355 2.422 48.8 48.8 0 017.053-.5c11.177 0 18.967 3.421 18.967 6.492s-7.79 6.492-18.967 6.492S2.447 12.009 2.447 8.938c0-1.252 1.4-2.627 3.839-3.769a1.225 1.225 0 00-1.039-2.218C.91 4.983-.001 7.328-.001 8.938v43.331c0 5.808 11.034 8.94 21.417 8.94 10.112 0 18.458-2.67 20.768-6.644a1.168 1.168 0 00.152-.519 12.325 12.325 0 007.122-2.779l5.666 5.665a1.224 1.224 0 101.731-1.73zm.36-7.851a9.941 9.941 0 11-9.941-9.949 9.957 9.957 0 019.942 9.949zm-22.33 0a12.416 12.416 0 00.175 1.976 47.576 47.576 0 01-7.977.659c-11.177 0-18.969-3.423-18.969-6.492V27.685c3.822 3.031 11.55 4.64 18.969 4.64s15.146-1.609 18.967-4.64v1.663a12.413 12.413 0 00-11.164 12.337zm-7.8-23.8c7.417 0 15.146-1.607 18.967-4.638v10.142c0 3.069-7.79 6.492-18.967 6.492S2.449 26.458 2.449 23.389V13.247c3.821 3.027 11.549 4.634 18.968 4.634zm0 40.882c-11.177 0-18.969-3.421-18.969-6.492V42.126c3.822 3.031 11.55 4.638 18.969 4.638a50.106 50.106 0 008.634-.724 12.4 12.4 0 009.582 7.877c-2.159 2.447-8.892 4.846-18.217 4.846z"/></g></svg>