<svg xmlns="http://www.w3.org/2000/svg" viewBox="0 0 192.99 34.79"><defs><style>.cls-1{fill:#323333;}.cls-2{fill:#c98420;}</style></defs><title>logo</title><g id="レイヤー_2" data-name="レイヤー 2"><g id="レイヤー_1-2" data-name="レイヤー 1"><path class="cls-1" d="M23.91,28.56A12.86,12.86,0,0,1,13,34.79c-7.63,0-13-6.78-13-14S5.38,6.82,13,6.82A13,13,0,0,1,22.43,11a5,5,0,0,1,1.79,3.27,2.46,2.46,0,0,1-2.49,2.49,2.25,2.25,0,0,1-1.87-.86A8.1,8.1,0,0,0,13,11.73c-4.75,0-8.1,4.36-8.1,9s3.35,9.11,8.1,9.11a7.62,7.62,0,0,0,6.54-3.74v.08a2.41,2.41,0,0,1,2.26-1.48,2.53,2.53,0,0,1,2.57,2.49A2,2,0,0,1,23.91,28.56Z"/><path class="cls-1" d="M59.36,20.77c0,7.32-5.45,14-13.09,14s-13.09-6.7-13.09-14c0-7.17,5.45-13.94,13.09-13.94S59.36,13.6,59.36,20.77Zm-5,0c0-4.6-3.27-9-8.1-9s-8.18,4.36-8.18,9c0,4.75,3.43,9.11,8.18,9.11S54.37,25.52,54.37,20.77Z"/><path class="cls-1" d="M91.21,19.36V32.22a2.56,2.56,0,0,1-2.49,2.49,2.44,2.44,0,0,1-2.41-2.49V19.36c0-3.66-1.95-7.17-5.84-7.17-5.06,0-6.93,4.75-6.93,10v10a2.45,2.45,0,1,1-4.91,0v-22A2.44,2.44,0,0,1,71,7.76a2.58,2.58,0,0,1,2.49,2.1,10.84,10.84,0,0,1,6.93-2.57C87.32,7.29,91.21,13.21,91.21,19.36Z"/><path class="cls-1" d="M140.91,19.36V32.29a2.55,2.55,0,0,1-2.41,2.49A2.46,2.46,0,0,1,136,32.29V19.36c0-3.58-1.95-7.09-5.84-7.09-5.06,0-6.93,5.69-6.93,10v10a2.5,2.5,0,0,1-2.42,2.49,2.46,2.46,0,0,1-2.49-2.49V19.36c0-3.58-1.95-7.09-5.84-7.09-5.06,0-7.17,4.21-7,9.89V32.29a2.42,2.42,0,1,1-4.83,0v-22a2.42,2.42,0,0,1,4.83-.31,10.79,10.79,0,0,1,7-2.57,9.94,9.94,0,0,1,8.65,4.75,11.11,11.11,0,0,1,9-4.75C137,7.37,140.91,13.21,140.91,19.36Z"/><path class="cls-1" d="M177.37,9.7v22a2.45,2.45,0,1,1-4.91,0v-.31a13.53,13.53,0,0,1-8.65,3.43c-7.63,0-13.09-6.78-13.09-14s5.45-13.94,13.09-13.94a13.12,13.12,0,0,1,8.65,3.43V9.7a2.45,2.45,0,1,1,4.91,0Zm-5.45,11.06c0-4.67-3.27-9-8.1-9s-8.18,4.36-8.18,9,3.43,9.11,8.18,9.11S171.91,25.52,171.91,20.77Z"/><path class="cls-1" d="M192.87,31.6a3.16,3.16,0,0,1-3,3.12,3.08,3.08,0,1,1,0-6.15A3.15,3.15,0,0,1,192.87,31.6Zm-5.53-7.34V1.68c0-.84,1.09-1.68,2.49-1.68,1.17,0,2.42.84,2.42,1.68V24.27c0,.94-1.25,1.73-2.42,1.73C188.43,26,187.33,25.21,187.33,24.27Z"/><circle class="cls-2" cx="189.83" cy="31.63" r="3.16"/></g></g></svg>