<svg xmlns="http://www.w3.org/2000/svg" width="74.607" height="72.743" viewBox="0 0 74.607 72.743">
  <g id="グループ_318" data-name="グループ 318" transform="translate(-571.475 -799.647)">
    <rect id="長方形_370" data-name="長方形 370" width="70" height="70" transform="translate(574 801)" fill="#fff"/>
    <g id="グループ_55" data-name="グループ 55" transform="matrix(0.921, -0.391, 0.391, 0.921, 571.475, 812.257)">
      <g id="グループ_42" data-name="グループ 42" transform="translate(10.292 28.68)">
        <g id="グループ_41" data-name="グループ 41">
          <g id="グループ_40" data-name="グループ 40">
            <path id="パス_11" data-name="パス 11" d="M1497.578,2039.77h-6.08a1.394,1.394,0,0,1-1.394-1.394v-3.889a15.672,15.672,0,0,1-3.234-1.34l-2.772,2.76a1.392,1.392,0,0,1-1.965,0l-4.3-4.281a1.394,1.394,0,0,1,0-1.975l2.764-2.752a15.614,15.614,0,0,1-1.34-3.214h-3.913a1.394,1.394,0,0,1-1.394-1.394v-6.053a1.394,1.394,0,0,1,1.394-1.394h3.913a15.629,15.629,0,0,1,1.34-3.214l-2.764-2.752a1.394,1.394,0,0,1,0-1.975l4.3-4.281a1.391,1.391,0,0,1,1.965,0l2.772,2.758a15.78,15.78,0,0,1,3.234-1.34v-3.889a1.4,1.4,0,0,1,1.394-1.394h6.08a1.394,1.394,0,0,1,1.394,1.394v3.889a15.8,15.8,0,0,1,3.236,1.34l2.77-2.758a1.394,1.394,0,0,1,1.967,0l4.3,4.281a1.394,1.394,0,0,1,0,1.975l-2.766,2.752a15.643,15.643,0,0,1,1.342,3.214h3.911a1.393,1.393,0,0,1,1.394,1.394v6.053a1.393,1.393,0,0,1-1.394,1.394h-3.911a15.628,15.628,0,0,1-1.342,3.214l2.766,2.752a1.394,1.394,0,0,1,0,1.975l-4.3,4.281a1.4,1.4,0,0,1-1.967,0l-2.77-2.76a15.687,15.687,0,0,1-3.236,1.34v3.889A1.393,1.393,0,0,1,1497.578,2039.77Zm-4.686-2.788h3.292v-3.58a1.392,1.392,0,0,1,1.105-1.364,13.09,13.09,0,0,0,4.377-1.812,1.394,1.394,0,0,1,1.74.183l2.555,2.543,2.324-2.314-2.547-2.535a1.394,1.394,0,0,1-.185-1.749,12.9,12.9,0,0,0,1.818-4.355,1.4,1.4,0,0,1,1.364-1.1h3.6v-3.266h-3.6a1.4,1.4,0,0,1-1.364-1.1,12.888,12.888,0,0,0-1.818-4.355,1.393,1.393,0,0,1,.185-1.748l2.547-2.535-2.324-2.314-2.555,2.542a1.393,1.393,0,0,1-1.74.183,13.055,13.055,0,0,0-4.377-1.812,1.392,1.392,0,0,1-1.105-1.364v-3.583h-3.292v3.583a1.392,1.392,0,0,1-1.105,1.364,13.043,13.043,0,0,0-4.375,1.812,1.391,1.391,0,0,1-1.74-.183l-2.555-2.542-2.324,2.314,2.547,2.535a1.393,1.393,0,0,1,.183,1.748,12.884,12.884,0,0,0-1.818,4.355,1.393,1.393,0,0,1-1.362,1.1h-3.6v3.266h3.6a1.393,1.393,0,0,1,1.362,1.1,12.893,12.893,0,0,0,1.818,4.355,1.394,1.394,0,0,1-.183,1.749l-2.547,2.535,2.324,2.314,2.555-2.543a1.388,1.388,0,0,1,1.738-.183,13.09,13.09,0,0,0,4.377,1.812,1.392,1.392,0,0,1,1.105,1.364Z" transform="translate(-1473.951 -1998.755)" fill="#5d5d5d"/>
          </g>
        </g>
      </g>
      <g id="グループ_45" data-name="グループ 45" transform="translate(25.24 51.009)">
        <g id="グループ_44" data-name="グループ 44">
          <g id="グループ_43" data-name="グループ 43">
            <path id="パス_12" data-name="パス 12" d="M1482.852,2012.729a1.38,1.38,0,0,1-.99-.4,1.4,1.4,0,0,1,0-1.965,1.428,1.428,0,0,1,1.965,0,1.362,1.362,0,0,1,.418.976,1.393,1.393,0,0,1-.418.99A1.349,1.349,0,0,1,1482.852,2012.729Z" transform="translate(-1481.458 -2009.968)" fill="#3cd2c8"/>
          </g>
        </g>
      </g>
      <g id="グループ_48" data-name="グループ 48" transform="translate(24.159 42.49)">
        <g id="グループ_47" data-name="グループ 47">
          <g id="グループ_46" data-name="グループ 46">
            <path id="パス_13" data-name="パス 13" d="M1487.636,2019.086a6.8,6.8,0,0,1-1.794-.241,1.394,1.394,0,1,1,.741-2.688,3.987,3.987,0,0,0,1.053.141,3.91,3.91,0,1,0-3.933-3.909,1.394,1.394,0,1,1-2.788,0,6.721,6.721,0,1,1,6.721,6.7Z" transform="translate(-1480.915 -2005.69)" fill="#3cd2c8"/>
          </g>
        </g>
      </g>
      <g id="グループ_51" data-name="グループ 51">
        <g id="グループ_50" data-name="グループ 50">
          <g id="グループ_49" data-name="グループ 49">
            <path id="パス_14" data-name="パス 14" d="M1482.458,2016.537a1.385,1.385,0,0,1-.448-.073l-4.435-1.511a1.4,1.4,0,0,1-.874-1.763l.878-2.615a12.573,12.573,0,0,1-1.728-1.516l-2.481,1.219a1.394,1.394,0,0,1-1.862-.629l-2.089-4.192a1.4,1.4,0,0,1,.633-1.872l2.471-1.215a12.416,12.416,0,0,1-.161-2.27l-2.635-.9a1.4,1.4,0,0,1-.872-1.762l1.482-4.417a1.408,1.408,0,0,1,.7-.806,1.39,1.39,0,0,1,1.067-.07l2.625.894a12.41,12.41,0,0,1,1.491-1.7l-1.236-2.483a1.391,1.391,0,0,1,.633-1.872l4.184-2.055a1.39,1.39,0,0,1,1.862.629l1.243,2.493a12.623,12.623,0,0,1,2.276-.149l.874-2.6a1.392,1.392,0,0,1,1.77-.876l4.435,1.509a1.392,1.392,0,0,1,.872,1.762l-.876,2.615a12.747,12.747,0,0,1,1.729,1.515l2.481-1.217a1.391,1.391,0,0,1,1.862.629l2.087,4.189a1.392,1.392,0,0,1-.631,1.872l-2.473,1.215a12.237,12.237,0,0,1,.163,2.27l2.633.9a1.392,1.392,0,0,1,.872,1.762l-1.482,4.417a1.393,1.393,0,0,1-1.77.876l-2.626-.894a12.17,12.17,0,0,1-1.489,1.7l1.236,2.483a1.4,1.4,0,0,1-.633,1.872l-4.184,2.055a1.393,1.393,0,0,1-1.862-.629l-1.243-2.493a12.422,12.422,0,0,1-2.276.147l-.874,2.606a1.392,1.392,0,0,1-.7.807A1.411,1.411,0,0,1,1482.458,2016.537Zm-2.672-3.775,1.8.611.771-2.3a1.386,1.386,0,0,1,1.487-.94,9.687,9.687,0,0,0,3.521-.227,1.4,1.4,0,0,1,1.587.731l1.1,2.209,1.682-.825-1.093-2.2a1.39,1.39,0,0,1,.384-1.715,9.557,9.557,0,0,0,2.314-2.636,1.4,1.4,0,0,1,1.647-.609l2.322.791.594-1.772-2.33-.794a1.394,1.394,0,0,1-.936-1.476,9.664,9.664,0,0,0-.253-3.515,1.4,1.4,0,0,1,.735-1.6l2.184-1.074-.844-1.695-2.2,1.08a1.391,1.391,0,0,1-1.706-.385,9.782,9.782,0,0,0-2.664-2.334,1.4,1.4,0,0,1-.609-1.643l.777-2.314-1.8-.611-.771,2.3a1.4,1.4,0,0,1-1.488.94,9.7,9.7,0,0,0-3.521.227,1.384,1.384,0,0,1-1.587-.73l-1.1-2.208-1.681.827,1.093,2.194a1.392,1.392,0,0,1-.384,1.715,9.543,9.543,0,0,0-2.314,2.636,1.4,1.4,0,0,1-1.649.609l-2.32-.791-.6,1.774,2.332.793a1.4,1.4,0,0,1,.936,1.477,9.67,9.67,0,0,0,.253,3.514,1.393,1.393,0,0,1-.735,1.6l-2.186,1.073.846,1.7,2.2-1.081a1.394,1.394,0,0,1,1.707.385,9.777,9.777,0,0,0,2.664,2.336,1.4,1.4,0,0,1,.609,1.643Z" transform="translate(-1468.783 -1984.352)" fill="#5d5d5d"/>
          </g>
        </g>
      </g>
      <g id="グループ_54" data-name="グループ 54" transform="translate(10.647 10.609)">
        <g id="グループ_53" data-name="グループ 53">
          <g id="グループ_52" data-name="グループ 52">
            <path id="パス_15" data-name="パス 15" d="M1479.649,2000.648h0a5.477,5.477,0,1,1,5.177-3.718A5.464,5.464,0,0,1,1479.649,2000.648Zm-.058-8.181a2.666,2.666,0,0,0-2.535,1.816,2.711,2.711,0,1,0,3.413-1.671A2.768,2.768,0,0,0,1479.591,1992.467Z" transform="translate(-1474.129 -1989.68)" fill="#3cd2c8"/>
          </g>
        </g>
      </g>
    </g>
  </g>
</svg>
