<svg xmlns="http://www.w3.org/2000/svg" width="70" height="70" viewBox="0 0 70 70">
  <g id="グループ_321" data-name="グループ 321" transform="translate(-574 -1112)">
    <rect id="長方形_373" data-name="長方形 373" width="70" height="70" transform="translate(574 1112)" fill="#fff"/>
    <g id="グループ_159" data-name="グループ 159" transform="translate(581.401 1114.395)">
      <g id="グループ_151" data-name="グループ 151" transform="translate(0.004 9.03)">
        <path id="パス_51" data-name="パス 51" d="M1642.683,2004.449a1.3,1.3,0,0,1-1.3-1.3v-9.839a1.3,1.3,0,0,1,1.3-1.3h43.2a1.3,1.3,0,0,1,0,2.6h-41.9v8.54A1.3,1.3,0,0,1,1642.683,2004.449Z" transform="translate(-1641.385 -1992.013)" fill="#5d5d5d"/>
      </g>
      <g id="グループ_152" data-name="グループ 152" transform="translate(0 24.148)">
        <path id="パス_52" data-name="パス 52" d="M1642.681,2001.98a1.3,1.3,0,0,1-.921-2.22,1.344,1.344,0,0,1,1.843,0,1.3,1.3,0,0,1,0,1.831A1.292,1.292,0,0,1,1642.681,2001.98Z" transform="translate(-1641.383 -1999.394)" fill="#5d5d5d"/>
      </g>
      <g id="グループ_153" data-name="グループ 153" transform="translate(0.004 9.03)">
        <path id="パス_53" data-name="パス 53" d="M1695.107,2021.024h-52.424a1.3,1.3,0,0,1-1.3-1.3v-6.048a1.3,1.3,0,0,1,2.6,0v4.75h49.827v-25.115a1.3,1.3,0,1,1,2.6,0v26.414A1.3,1.3,0,0,1,1695.107,2021.024Z" transform="translate(-1641.385 -1992.013)" fill="#5d5d5d"/>
      </g>
      <g id="グループ_154" data-name="グループ 154" transform="translate(0.004)">
        <path id="パス_54" data-name="パス 54" d="M1695.107,1999.231a1.3,1.3,0,0,1-1.3-1.3V1990.2h-49.827v7.731a1.3,1.3,0,1,1-2.6,0v-9.03a1.3,1.3,0,0,1,1.3-1.3h52.424a1.3,1.3,0,0,1,1.3,1.3v9.03A1.3,1.3,0,0,1,1695.107,1999.231Z" transform="translate(-1641.385 -1987.604)" fill="#5d5d5d"/>
      </g>
      <g id="グループ_155" data-name="グループ 155" transform="translate(26.217 35.444)">
        <path id="パス_55" data-name="パス 55" d="M1655.482,2034.383a1.3,1.3,0,0,1-1.3-1.3v-26.876a1.3,1.3,0,0,1,2.6,0v26.876A1.3,1.3,0,0,1,1655.482,2034.383Z" transform="translate(-1654.184 -2004.91)" fill="#5d5d5d"/>
      </g>
      <g id="グループ_156" data-name="グループ 156" transform="translate(6.669 47.76)">
        <path id="パス_56" data-name="パス 56" d="M1645.939,2028.081a1.3,1.3,0,0,1-.776-2.338l19.546-14.562a1.3,1.3,0,0,1,1.551,2.083l-19.547,14.56A1.293,1.293,0,0,1,1645.939,2028.081Z" transform="translate(-1644.639 -2010.923)" fill="#5d5d5d"/>
      </g>
      <g id="グループ_157" data-name="グループ 157" transform="translate(26.216 47.76)">
        <path id="パス_57" data-name="パス 57" d="M1675.03,2028.081a1.283,1.283,0,0,1-.774-.258l-19.549-14.56a1.3,1.3,0,1,1,1.551-2.083l19.549,14.562a1.3,1.3,0,0,1-.776,2.338Z" transform="translate(-1654.183 -2010.923)" fill="#5d5d5d"/>
      </g>
      <g id="グループ_158" data-name="グループ 158" transform="translate(16.245 14.234)">
        <path id="パス_58" data-name="パス 58" d="M1654.111,2008.741a1.74,1.74,0,0,1-1.741-1.741v-8.024a1.74,1.74,0,1,1,3.479,0V2007A1.739,1.739,0,0,1,1654.111,2008.741Z" transform="translate(-1646.112 -1991.744)" fill="#3cd2c8"/>
        <path id="パス_59" data-name="パス 59" d="M1651.056,2007.368a1.74,1.74,0,0,1-1.741-1.741v-5.341a1.741,1.741,0,1,1,3.482,0v5.341A1.739,1.739,0,0,1,1651.056,2007.368Z" transform="translate(-1649.315 -1990.37)" fill="#3cd2c8"/>
        <path id="パス_60" data-name="パス 60" d="M1657.236,2010.482a1.74,1.74,0,0,1-1.741-1.741v-11.426a1.74,1.74,0,1,1,3.48,0v11.426A1.739,1.739,0,0,1,1657.236,2010.482Z" transform="translate(-1642.837 -1993.485)" fill="#3cd2c8"/>
        <path id="パス_61" data-name="パス 61" d="M1660.361,2011.551a1.74,1.74,0,0,1-1.74-1.741v-13.517a1.74,1.74,0,0,1,3.479,0v13.517A1.739,1.739,0,0,1,1660.361,2011.551Z" transform="translate(-1639.561 -1994.554)" fill="#3cd2c8"/>
      </g>
    </g>
  </g>
</svg>
