<svg xmlns="http://www.w3.org/2000/svg" width="70" height="70" viewBox="0 0 70 70">
  <g id="グループ_317" data-name="グループ 317" transform="translate(-919 -801)">
    <rect id="長方形_369" data-name="長方形 369" width="70" height="70" transform="translate(919 801)" fill="#fff"/>
    <g id="グループ_179" data-name="グループ 179" transform="translate(926.107 808.876)">
      <g id="グループ_111" data-name="グループ 111" transform="translate(18.955)">
        <g id="グループ_83" data-name="グループ 83" transform="translate(0.003)">
          <g id="グループ_82" data-name="グループ 82">
            <g id="グループ_81" data-name="グループ 81">
              <path id="パス_24" data-name="パス 24" d="M1473.286,2039.532h-35.07a1.125,1.125,0,0,1-1.126-1.125v-20.782a1.126,1.126,0,0,1,2.251,0v19.656h32.819v-38.518L1462,1988.668h-22.656v19.08a1.126,1.126,0,1,1-2.251,0v-20.206a1.125,1.125,0,0,1,1.126-1.125h24.247a1.128,1.128,0,0,1,.793.326l10.823,10.753a1.121,1.121,0,0,1,.333.8v40.112A1.125,1.125,0,0,1,1473.286,2039.532Z" transform="translate(-1437.09 -1986.416)" fill="#5d5d5d"/>
            </g>
          </g>
        </g>
        <g id="グループ_86" data-name="グループ 86" transform="translate(0 25.156)">
          <g id="グループ_85" data-name="グループ 85">
            <g id="グループ_84" data-name="グループ 84">
              <path id="パス_25" data-name="パス 25" d="M1438.213,2004.3a1.13,1.13,0,0,1-.788-.328,1.142,1.142,0,0,1-.338-.8,1.126,1.126,0,0,1,1.925-.8,1.14,1.14,0,0,1,0,1.6A1.179,1.179,0,0,1,1438.213,2004.3Z" transform="translate(-1437.088 -2002.06)" fill="#5d5d5d"/>
            </g>
          </g>
        </g>
        <g id="グループ_89" data-name="グループ 89" transform="translate(24.249 10.753)">
          <g id="グループ_88" data-name="グループ 88">
            <g id="グループ_87" data-name="グループ 87">
              <path id="パス_26" data-name="パス 26" d="M1464.118,1995.355H1453.3a1.126,1.126,0,1,1,0-2.251h10.823a1.126,1.126,0,1,1,0,2.251Z" transform="translate(-1452.168 -1993.103)" fill="#5d5d5d"/>
            </g>
          </g>
        </g>
        <g id="グループ_92" data-name="グループ 92" transform="translate(24.249)">
          <g id="グループ_91" data-name="グループ 91">
            <g id="グループ_90" data-name="グループ 90">
              <path id="パス_27" data-name="パス 27" d="M1453.3,1999.421a1.128,1.128,0,0,1-1.127-1.126v-10.753a1.126,1.126,0,0,1,2.253,0v10.753A1.127,1.127,0,0,1,1453.3,1999.421Z" transform="translate(-1452.168 -1986.416)" fill="#5d5d5d"/>
            </g>
          </g>
        </g>
        <g id="グループ_95" data-name="グループ 95" transform="translate(5.871 11.957)">
          <g id="グループ_94" data-name="グループ 94">
            <g id="グループ_93" data-name="グループ 93">
              <path id="パス_28" data-name="パス 28" d="M1453.532,1996.1h-11.666a1.126,1.126,0,1,1,0-2.251h11.666a1.126,1.126,0,0,1,0,2.251Z" transform="translate(-1440.739 -1993.853)" fill="#3cd2c8"/>
            </g>
          </g>
        </g>
        <g id="グループ_98" data-name="グループ 98" transform="translate(5.871 19.441)">
          <g id="グループ_97" data-name="グループ 97">
            <g id="グループ_96" data-name="グループ 96">
              <path id="パス_29" data-name="パス 29" d="M1462.661,2000.758h-20.795a1.125,1.125,0,1,1,0-2.251h20.795a1.125,1.125,0,1,1,0,2.251Z" transform="translate(-1440.739 -1998.507)" fill="#3cd2c8"/>
            </g>
          </g>
        </g>
        <g id="グループ_101" data-name="グループ 101" transform="translate(5.871 26.924)">
          <g id="グループ_100" data-name="グループ 100">
            <g id="グループ_99" data-name="グループ 99">
              <path id="パス_30" data-name="パス 30" d="M1462.661,2005.412h-20.795a1.125,1.125,0,1,1,0-2.251h20.795a1.125,1.125,0,1,1,0,2.251Z" transform="translate(-1440.739 -2003.161)" fill="#3cd2c8"/>
            </g>
          </g>
        </g>
        <g id="グループ_104" data-name="グループ 104" transform="translate(5.871 34.408)">
          <g id="グループ_103" data-name="グループ 103">
            <g id="グループ_102" data-name="グループ 102">
              <path id="パス_31" data-name="パス 31" d="M1462.661,2010.066h-20.795a1.126,1.126,0,1,1,0-2.251h20.795a1.126,1.126,0,1,1,0,2.251Z" transform="translate(-1440.739 -2007.815)" fill="#3cd2c8"/>
            </g>
          </g>
        </g>
        <g id="グループ_107" data-name="グループ 107" transform="translate(5.871 41.892)">
          <g id="グループ_106" data-name="グループ 106">
            <g id="グループ_105" data-name="グループ 105">
              <path id="パス_32" data-name="パス 32" d="M1447.7,2014.72h-5.833a1.126,1.126,0,1,1,0-2.252h5.833a1.126,1.126,0,0,1,0,2.252Z" transform="translate(-1440.739 -2012.468)" fill="#3cd2c8"/>
            </g>
          </g>
        </g>
        <g id="グループ_110" data-name="グループ 110" transform="translate(23.324 41.892)">
          <g id="グループ_109" data-name="グループ 109">
            <g id="グループ_108" data-name="グループ 108">
              <path id="パス_33" data-name="パス 33" d="M1456.061,2014.72h-3.343a1.126,1.126,0,0,1,0-2.252h3.343a1.126,1.126,0,0,1,0,2.252Z" transform="translate(-1451.593 -2012.468)" fill="#3cd2c8"/>
            </g>
          </g>
        </g>
      </g>
      <g id="グループ_124" data-name="グループ 124">
        <g id="グループ_114" data-name="グループ 114" transform="translate(3.663 4.427)">
          <g id="グループ_113" data-name="グループ 113">
            <g id="グループ_112" data-name="グループ 112">
              <path id="パス_34" data-name="パス 34" d="M1433.1,2034.139h0a1.124,1.124,0,0,1-.917-.475,24.934,24.934,0,0,1-4.61-14.529v-24.3a5.529,5.529,0,1,1,11.055,0v11.457a1.126,1.126,0,0,1-2.251,0v-11.457a3.279,3.279,0,1,0-6.552,0v24.3a22.733,22.733,0,0,0,3.276,11.828,22.729,22.729,0,0,0,3.277-11.828v-8.267a1.126,1.126,0,0,1,2.251,0v8.267a24.931,24.931,0,0,1-4.61,14.529A1.125,1.125,0,0,1,1433.1,2034.139Z" transform="translate(-1427.578 -1989.17)" fill="#5d5d5d"/>
            </g>
          </g>
        </g>
        <g id="グループ_117" data-name="グループ 117" transform="translate(8.064 47.145)">
          <g id="グループ_116" data-name="グループ 116">
            <g id="グループ_115" data-name="グループ 115">
              <path id="パス_35" data-name="パス 35" d="M1431.44,2021.706a1.126,1.126,0,0,1-1.126-1.125v-3.719a1.126,1.126,0,0,1,2.251,0v3.719A1.125,1.125,0,0,1,1431.44,2021.706Z" transform="translate(-1430.315 -2015.736)" fill="#5d5d5d"/>
            </g>
          </g>
        </g>
        <g id="グループ_120" data-name="グループ 120" transform="translate(8.064)">
          <g id="グループ_119" data-name="グループ 119">
            <g id="グループ_118" data-name="グループ 118">
              <path id="パス_36" data-name="パス 36" d="M1431.44,1993.094a1.127,1.127,0,0,1-1.126-1.126v-4.427a1.126,1.126,0,0,1,2.251,0v4.427A1.126,1.126,0,0,1,1431.44,1993.094Z" transform="translate(-1430.315 -1986.416)" fill="#5d5d5d"/>
            </g>
          </g>
        </g>
        <g id="グループ_123" data-name="グループ 123" transform="translate(0 12.173)">
          <g id="グループ_122" data-name="グループ 122">
            <g id="グループ_121" data-name="グループ 121">
              <path id="パス_37" data-name="パス 37" d="M1426.425,2007.97a1.127,1.127,0,0,1-1.126-1.125v-11.732a1.127,1.127,0,0,1,1.126-1.126h12.467a1.126,1.126,0,0,1,0,2.251h-11.341v10.607A1.126,1.126,0,0,1,1426.425,2007.97Z" transform="translate(-1425.3 -1993.986)" fill="#5d5d5d"/>
            </g>
          </g>
        </g>
      </g>
    </g>
  </g>
</svg>
