<svg xmlns="http://www.w3.org/2000/svg" width="70" height="70" viewBox="0 0 70 70">
  <g id="グループ_315" data-name="グループ 315" transform="translate(-574 -489)">
    <rect id="長方形_367" data-name="長方形 367" width="70" height="70" transform="translate(574 489)" fill="#fff"/>
    <g id="グループ_185" data-name="グループ 185" transform="translate(-978.836 -1452.179)">
      <g id="グループ_181" data-name="グループ 181" transform="translate(1578.957 1993.498)">
        <g id="グループ_180" data-name="グループ 180">
          <path id="パス_62" data-name="パス 62" d="M1592.294,1979.067h-19.725a1.126,1.126,0,0,1,0-2.251h19.725a1.126,1.126,0,1,1,0,2.251Z" transform="translate(-1571.443 -1976.816)" fill="#3cd2c8"/>
        </g>
      </g>
      <g id="グループ_183" data-name="グループ 183" transform="translate(1569.075 1993.498)">
        <g id="グループ_182" data-name="グループ 182">
          <path id="パス_63" data-name="パス 63" d="M1570.677,1979.067h-4.253a1.126,1.126,0,1,1,0-2.251h4.253a1.126,1.126,0,1,1,0,2.251Z" transform="translate(-1565.298 -1976.816)" fill="#3cd2c8"/>
        </g>
      </g>
      <g id="グループ_184" data-name="グループ 184" transform="translate(1559.087 1949.385)">
        <path id="パス_64" data-name="パス 64" d="M1593.022,1967.526a1.148,1.148,0,0,0-.338.8,1.1,1.1,0,0,0,.338.8,1.08,1.08,0,0,0,.788.327,1.105,1.105,0,0,0,.8-.327,1.124,1.124,0,0,0,0-1.585A1.151,1.151,0,0,0,1593.022,1967.526Z" transform="translate(-1538.655 -1938.541)" fill="#5d5d5d"/>
        <path id="パス_65" data-name="パス 65" d="M1615.372,1957.109a1.127,1.127,0,0,0-1.126-1.126h-8.251a1.078,1.078,0,0,0-.276.056v-2.62a4.033,4.033,0,1,0-8.067,0V1956c-.021,0-.039-.013-.058-.013h-20.729c-.021,0-.038.011-.059.013v-2.576a4.033,4.033,0,1,0-8.066,0v2.62a1.052,1.052,0,0,0-.275-.056h-8.251a1.126,1.126,0,0,0-1.126,1.126V2002.5a1.126,1.126,0,0,0,1.126,1.126h39.946a1.129,1.129,0,0,0,.433-.087,1.109,1.109,0,0,0,.36-.241h0l14.087-14.087a1.116,1.116,0,0,0,.28-1.082,1.163,1.163,0,0,0,.05-.246v-3.415a1.126,1.126,0,1,0-2.251,0v2.822h-12.962a1.127,1.127,0,0,0-1.125,1.126v12.961h-37.695v-30.834h51.782v3.334a1.126,1.126,0,0,0,2.251,0Zm-14.087,32.433h10.244l-10.244,10.244Zm-1.381-36.122a1.782,1.782,0,1,1,3.563,0v7.381a1.782,1.782,0,1,1-3.563,0Zm-28.913,0a1.782,1.782,0,1,1,3.564,0v7.381a1.782,1.782,0,0,1-3.564,0Zm42.13,14.872h-51.782v-10.057h7.126a1.114,1.114,0,0,0,.275-.054v2.621a4.033,4.033,0,0,0,8.066,0v-2.578c.021,0,.038.011.059.011h20.729c.019,0,.037-.01.058-.011v2.578a4.033,4.033,0,0,0,8.067,0v-2.621a1.141,1.141,0,0,0,.276.054h7.126Z" transform="translate(-1559.087 -1949.385)" fill="#5d5d5d"/>
      </g>
    </g>
  </g>
</svg>
