<svg xmlns="http://www.w3.org/2000/svg" width="70" height="70" viewBox="0 0 70 70">
  <g id="グループ_322" data-name="グループ 322" transform="translate(-919 -1112)">
    <rect id="長方形_372" data-name="長方形 372" width="70" height="70" transform="translate(919 1112)" fill="#fff"/>
    <g id="グループ_313" data-name="グループ 313" transform="translate(-759.228 -867.48)">
      <g id="グループ_307" data-name="グループ 307" transform="translate(1703.884 1996.06)">
        <path id="パス_154" data-name="パス 154" d="M1694.056,1995.119a1.334,1.334,0,0,1-1.324-1.324,1.3,1.3,0,0,1,.4-.94,1.37,1.37,0,0,1,1.867,0,1.327,1.327,0,0,1,0,1.867A1.323,1.323,0,0,1,1694.056,1995.119Z" transform="translate(-1692.732 -1992.487)" fill="#5d5d5d"/>
      </g>
      <g id="グループ_308" data-name="グループ 308" transform="translate(1698.161 2002.397)">
        <path id="パス_155" data-name="パス 155" d="M1705.212,2026.951a15.558,15.558,0,1,1,15.506-15.559A15.55,15.55,0,0,1,1705.212,2026.951Zm0-28.467a12.909,12.909,0,1,0,12.857,12.908A12.9,12.9,0,0,0,1705.212,1998.484Z" transform="translate(-1689.707 -1995.836)" fill="#5d5d5d"/>
      </g>
      <g id="グループ_309" data-name="グループ 309" transform="translate(1704.782 2009.018)">
        <path id="パス_156" data-name="パス 156" d="M1702.091,2017.208a8.814,8.814,0,0,1-4.281-1.109,1.324,1.324,0,1,1,1.286-2.314,6.174,6.174,0,0,0,2.995.774,6.274,6.274,0,1,0-5.753-3.862,1.324,1.324,0,0,1-2.446,1.014,8.876,8.876,0,1,1,8.2,5.5Z" transform="translate(-1693.207 -1999.336)" fill="#3cd2c8"/>
      </g>
      <path id="パス_157" data-name="パス 157" d="M1745.781,1996.04h-8.867v-4.911h2.94a1.324,1.324,0,1,0,0-2.648h-8.528a1.324,1.324,0,1,0,0,2.648h2.94v4.911H1709.61a1.324,1.324,0,1,0,0,2.648h34.846v38.53h-61.58v-38.53h17.937a1.324,1.324,0,0,0,0-2.648h-19.261a1.323,1.323,0,0,0-1.324,1.324v41.178a1.324,1.324,0,0,0,1.324,1.324h64.229a1.323,1.323,0,0,0,1.324-1.324v-41.178A1.323,1.323,0,0,0,1745.781,1996.04Z" transform="translate(0)" fill="#5d5d5d"/>
      <g id="グループ_312" data-name="グループ 312" transform="translate(1686.492 2002.397)">
        <g id="グループ_310" data-name="グループ 310">
          <path id="パス_158" data-name="パス 158" d="M1692.858,1998.484h-7.995a1.324,1.324,0,1,1,0-2.648h7.995a1.324,1.324,0,1,1,0,2.648Z" transform="translate(-1683.539 -1995.836)" fill="#3cd2c8"/>
        </g>
        <g id="グループ_311" data-name="グループ 311" transform="translate(43.706)">
          <path id="パス_159" data-name="パス 159" d="M1715.962,1998.484h-8a1.324,1.324,0,1,1,0-2.648h8a1.324,1.324,0,1,1,0,2.648Z" transform="translate(-1706.641 -1995.836)" fill="#3cd2c8"/>
        </g>
      </g>
    </g>
  </g>
</svg>
