<svg xmlns="http://www.w3.org/2000/svg" width="70" height="70" viewBox="0 0 70 70">
  <g id="グループ_324" data-name="グループ 324" transform="translate(-223 -801)">
    <rect id="長方形_371" data-name="長方形 371" width="70" height="70" transform="translate(223 801)" fill="#fff"/>
    <g id="グループ_170" data-name="グループ 170" transform="translate(222 801)">
      <g id="グループ_39" data-name="グループ 39">
        <g id="グループ_34" data-name="グループ 34">
          <path id="パス_6" data-name="パス 6" d="M68.752,42.475H8.452a1.347,1.347,0,0,1-1.4-1.3,1.43,1.43,0,0,1,1.4-1.4h60.3a1.367,1.367,0,0,1,1.4,1.4,1.288,1.288,0,0,1-1.4,1.3Z" fill="#3cd2c8"/>
        </g>
        <g id="グループ_35" data-name="グループ 35">
          <path id="パス_7" data-name="パス 7" d="M68.8,48.8H2.4A1.367,1.367,0,0,1,1,47.4H1v-37A1.367,1.367,0,0,1,2.4,9H46.1a1.4,1.4,0,1,1,0,2.8H3.7V46H67.4V11.7H57.9a1.367,1.367,0,0,1-1.4-1.4A1.344,1.344,0,0,1,57.9,9H68.7a1.367,1.367,0,0,1,1.4,1.4h0v37a1.347,1.347,0,0,1-1.3,1.4Z" fill="#5d5d5d"/>
        </g>
        <g id="グループ_36" data-name="グループ 36">
          <path id="パス_8" data-name="パス 8" d="M52.045,11.723a1.284,1.284,0,0,1-1-.4,1.086,1.086,0,0,1-.4-.9,1.284,1.284,0,0,1,.4-1,1.344,1.344,0,0,1,1.9,1.9,1.086,1.086,0,0,1-.9.4Z" fill="#3cd2c8"/>
        </g>
        <g id="グループ_37" data-name="グループ 37">
          <path id="パス_9" data-name="パス 9" d="M35.594,54.729a1.347,1.347,0,0,1-1.4-1.3h0v-6a1.4,1.4,0,1,1,2.8,0v6a1.493,1.493,0,0,1-1.4,1.3Z" fill="#5d5d5d"/>
        </g>
        <g id="グループ_38" data-name="グループ 38">
          <path id="パス_10" data-name="パス 10" d="M43.854,60.334h-16.6a1.347,1.347,0,0,1-1.4-1.3h0a6.936,6.936,0,0,1,6.9-7h5.5a6.914,6.914,0,0,1,6.9,6.9A1.236,1.236,0,0,1,43.854,60.334Zm-15-2.7h13.5a4.209,4.209,0,0,0-4-2.8h-5.6a3.877,3.877,0,0,0-3.9,2.8Z" fill="#5d5d5d"/>
        </g>
      </g>
      <g id="グループ_323" data-name="グループ 323" style="isolation: isolate">
        <path id="パス_160" data-name="パス 160" d="M28.26,32.9a3.3,3.3,0,0,1-.7-2.1l1.2-.3a3.313,3.313,0,0,0,.4,1.5,1,1,0,0,0,1,.6.984.984,0,0,0,.8-.3,1.135,1.135,0,0,0,.3-.8,1.689,1.689,0,0,0-.3-1,3.24,3.24,0,0,0-.8-.9l-1.6-1.4a2.757,2.757,0,0,1-.7-.9,3.73,3.73,0,0,1-.2-1.2,2.089,2.089,0,0,1,2.3-2.3,2.2,2.2,0,0,1,1.7.6,3.041,3.041,0,0,1,.7,1.9l-1.2.3a2.269,2.269,0,0,0-.3-1.3,1.1,1.1,0,0,0-1-.5,1.135,1.135,0,0,0-.8.3.984.984,0,0,0-.3.8,1.483,1.483,0,0,0,.1.7,2.651,2.651,0,0,0,.5.6l1.6,1.4a5.3,5.3,0,0,1,1,1.2,2.41,2.41,0,0,1,.4,1.5,2.089,2.089,0,0,1-2.3,2.3A2.41,2.41,0,0,1,28.26,32.9Z" fill="#3cd2c8"/>
        <path id="パス_161" data-name="パス 161" d="M33.56,23.8h3.8v1h-2.4V28h2v1h-2v3.6h2.4v1h-3.8Z" fill="#3cd2c8"/>
        <path id="パス_162" data-name="パス 162" d="M38.86,32.8a3.715,3.715,0,0,1-.6-2.3V26.8a3.715,3.715,0,0,1,.6-2.3,2.9,2.9,0,0,1,4,0,3.715,3.715,0,0,1,.6,2.3v3.7a3.715,3.715,0,0,1-.6,2.3,2.9,2.9,0,0,1-4,0Zm3.1-.7a2.269,2.269,0,0,0,.3-1.3V26.5a2.269,2.269,0,0,0-.3-1.3,1.053,1.053,0,0,0-1-.4c-.5,0-.9.1-1,.4a2.269,2.269,0,0,0-.3,1.3v4.3a2.269,2.269,0,0,0,.3,1.3,1.053,1.053,0,0,0,1,.4A1.159,1.159,0,0,0,41.96,32.1Z" fill="#3cd2c8"/>
      </g>
    </g>
  </g>
</svg>
