<svg xmlns="http://www.w3.org/2000/svg" width="70" height="70" viewBox="0 0 70 70">
  <g id="グループ_316" data-name="グループ 316" transform="translate(-919 -489)">
    <rect id="長方形_368" data-name="長方形 368" width="70" height="70" transform="translate(919 489)" fill="#fff"/>
    <g id="グループ_218" data-name="グループ 218" transform="translate(-397.485 -1483.295)">
      <g id="グループ_188" data-name="グループ 188" transform="translate(1334.95 1990.646)">
        <g id="グループ_187" data-name="グループ 187">
          <g id="グループ_186" data-name="グループ 186">
            <path id="パス_66" data-name="パス 66" d="M1363.286,2020.123a1.179,1.179,0,0,1-.836-.346l-32.533-32.443a1.182,1.182,0,0,1,1.669-1.675l32.535,32.443a1.183,1.183,0,0,1-.835,2.021Z" transform="translate(-1329.569 -1985.314)" fill="#3cd2c8"/>
          </g>
        </g>
      </g>
      <g id="グループ_195" data-name="グループ 195" transform="translate(1330.216 1986.006)">
        <g id="グループ_191" data-name="グループ 191" transform="translate(28.989)">
          <g id="グループ_190" data-name="グループ 190">
            <g id="グループ_189" data-name="グループ 189">
              <path id="パス_67" data-name="パス 67" d="M1349.757,1989.568a1.182,1.182,0,0,1-.834-.345l-4.647-4.635a1.182,1.182,0,1,1,1.669-1.674l4.649,4.634a1.183,1.183,0,0,1-.836,2.021Z" transform="translate(-1343.927 -1982.567)" fill="#3cd2c8"/>
            </g>
          </g>
        </g>
        <g id="グループ_194" data-name="グループ 194" transform="translate(0 28.907)">
          <g id="グループ_193" data-name="グループ 193">
            <g id="グループ_192" data-name="グループ 192">
              <path id="パス_68" data-name="パス 68" d="M1332.6,2006.68a1.18,1.18,0,0,1-.835-.344l-4.647-4.636a1.182,1.182,0,1,1,1.669-1.674l4.647,4.635a1.182,1.182,0,0,1-.835,2.019Z" transform="translate(-1326.767 -1999.679)" fill="#3cd2c8"/>
            </g>
          </g>
        </g>
      </g>
      <g id="グループ_211" data-name="グループ 211" transform="translate(1324.843 1980.514)">
        <g id="グループ_198" data-name="グループ 198">
          <g id="グループ_197" data-name="グループ 197">
            <g id="グループ_196" data-name="グループ 196">
              <path id="パス_69" data-name="パス 69" d="M1343.243,2009.214a1.183,1.183,0,0,1-.838-.348l-16.966-17a6.368,6.368,0,0,1,0-8.98l1.7-1.7a6.331,6.331,0,0,1,8.969,0l18.711,18.75a1.183,1.183,0,0,1-1.674,1.671l-18.713-18.75a4.06,4.06,0,0,0-5.619,0l-1.7,1.7a4,4,0,0,0,0,5.641l16.966,17.006a1.182,1.182,0,0,1-.838,2.017Z" transform="translate(-1323.587 -1979.316)" fill="#5d5d5d"/>
            </g>
          </g>
        </g>
        <g id="グループ_201" data-name="グループ 201" transform="translate(21.085 30.172)">
          <g id="グループ_200" data-name="グループ 200">
            <g id="グループ_199" data-name="グループ 199">
              <path id="パス_70" data-name="パス 70" d="M1337.25,1999.527a1.215,1.215,0,0,1-1.182-1.182,1.183,1.183,0,0,1,.356-.84,1.221,1.221,0,0,1,1.666,0,1.185,1.185,0,0,1,0,1.667A1.2,1.2,0,0,1,1337.25,1999.527Z" transform="translate(-1336.068 -1997.177)" fill="#5d5d5d"/>
            </g>
          </g>
        </g>
        <g id="グループ_204" data-name="グループ 204" transform="translate(23.704 20.265)">
          <g id="グループ_203" data-name="グループ 203">
            <g id="グループ_202" data-name="グループ 202">
              <path id="パス_71" data-name="パス 71" d="M1366.453,2024.892a1.179,1.179,0,0,1-.365-.058l-13.3-4.314a1.168,1.168,0,0,1-.473-.291l-14.356-14.39a1.182,1.182,0,1,1,1.674-1.671l14.155,14.189,10.824,3.512-3.507-10.854-17.638-17.687a1.182,1.182,0,0,1,1.674-1.669l17.841,17.886a1.2,1.2,0,0,1,.287.473l4.3,13.327a1.182,1.182,0,0,1-1.125,1.546Z" transform="translate(-1337.618 -1991.312)" fill="#5d5d5d"/>
            </g>
          </g>
        </g>
        <g id="グループ_207" data-name="グループ 207" transform="translate(38.06 38.153)">
          <g id="グループ_206" data-name="グループ 206">
            <g id="グループ_205" data-name="グループ 205">
              <path id="パス_72" data-name="パス 72" d="M1347.3,2013.279a1.182,1.182,0,0,1-.838-2.017l8.99-9.014a1.183,1.183,0,0,1,1.676,1.671l-8.992,9.013A1.18,1.18,0,0,1,1347.3,2013.279Z" transform="translate(-1346.116 -2001.901)" fill="#5d5d5d"/>
            </g>
          </g>
        </g>
        <g id="グループ_210" data-name="グループ 210" transform="translate(5.611 5.625)">
          <g id="グループ_209" data-name="グループ 209">
            <g id="グループ_208" data-name="グループ 208">
              <path id="パス_73" data-name="パス 73" d="M1328.091,1994.025a1.183,1.183,0,0,1-.838-2.019l8.992-9.013a1.183,1.183,0,1,1,1.674,1.671l-8.992,9.012A1.18,1.18,0,0,1,1328.091,1994.025Z" transform="translate(-1326.908 -1982.646)" fill="#5d5d5d"/>
            </g>
          </g>
        </g>
      </g>
      <g id="グループ_214" data-name="グループ 214" transform="translate(1349.239 1977.578)">
        <g id="グループ_213" data-name="グループ 213">
          <g id="グループ_212" data-name="グループ 212">
            <path id="パス_74" data-name="パス 74" d="M1351.5,2009.232a1.183,1.183,0,0,1-.836-2.02l16.913-16.865-9.945-9.918-17.584,17.535a1.182,1.182,0,0,1-1.671-1.674l18.418-18.368a1.184,1.184,0,0,1,1.671,0l11.619,11.588a1.181,1.181,0,0,1,0,1.675l-17.751,17.7A1.182,1.182,0,0,1,1351.5,2009.232Z" transform="translate(-1338.028 -1977.578)" fill="#5d5d5d"/>
          </g>
        </g>
      </g>
      <g id="グループ_217" data-name="グループ 217" transform="translate(1321.763 2005.128)">
        <g id="グループ_216" data-name="グループ 216">
          <g id="グループ_215" data-name="グループ 215">
            <path id="パス_75" data-name="パス 75" d="M1334.566,2026.054a1.176,1.176,0,0,1-.835-.344l-11.621-11.589a1.18,1.18,0,0,1,0-1.674l18.267-18.214a1.182,1.182,0,1,1,1.669,1.674l-17.427,17.378,9.947,9.918,17.593-17.543a1.182,1.182,0,1,1,1.669,1.674l-18.427,18.376A1.18,1.18,0,0,1,1334.566,2026.054Z" transform="translate(-1321.763 -1993.887)" fill="#5d5d5d"/>
          </g>
        </g>
      </g>
    </g>
  </g>
</svg>
