<svg xmlns="http://www.w3.org/2000/svg" width="70" height="70"><g data-name="グループ 320"><path data-name="長方形 374" fill="#fff" d="M0 0h70v70H0z"/><g data-name="グループ 178" transform="translate(-1044.307 -1491.077)"><path data-name="パス 49" d="M1091.928 1552.12h-25.2a13.437 13.437 0 01-13.423-13.423v-25.2a13.437 13.437 0 0113.423-13.423h25.2a13.437 13.437 0 0113.423 13.423v25.2a13.437 13.437 0 01-13.423 13.423zm-25.2-48.893a10.284 10.284 0 00-10.272 10.273v25.2a10.283 10.283 0 0010.272 10.272h25.2a10.283 10.283 0 0010.272-10.272v-25.2a10.284 10.284 0 00-10.272-10.273z" fill="#5d5d5d"/><path data-name="パス 50" d="M1079.324 1539.357a13.259 13.259 0 1113.26-13.26 13.275 13.275 0 01-13.26 13.26zm0-23.368a10.109 10.109 0 1010.11 10.108 10.12 10.12 0 00-10.11-10.108z" fill="#5d5d5d"/><circle data-name="楕円形 1" cx="3.287" cy="3.287" r="3.287" transform="translate(1090.277 1508.792)" fill="#3cd2c8"/></g></g></svg>