<svg xmlns="http://www.w3.org/2000/svg" width="70" height="70" viewBox="0 0 70 70">
  <g id="グループ_320" data-name="グループ 320" transform="translate(-223 -1112)">
    <rect id="長方形_374" data-name="長方形 374" width="70" height="70" transform="translate(223 1112)" fill="#fff"/>
    <g id="グループ_178" data-name="グループ 178" transform="translate(-821.307 -379.077)">
      <path id="パス_49" data-name="パス 49" d="M1641.583,2040.135h-25.2a13.437,13.437,0,0,1-13.423-13.423v-25.2a13.437,13.437,0,0,1,13.423-13.423h25.2a13.437,13.437,0,0,1,13.423,13.423v25.2A13.437,13.437,0,0,1,1641.583,2040.135Zm-25.2-48.893a10.284,10.284,0,0,0-10.272,10.273v25.2a10.283,10.283,0,0,0,10.272,10.272h25.2a10.283,10.283,0,0,0,10.272-10.272v-25.2a10.284,10.284,0,0,0-10.272-10.273Z" transform="translate(-549.655 -488.015)" fill="#5d5d5d"/>
      <path id="パス_50" data-name="パス 50" d="M1623.1,2021.493a13.259,13.259,0,1,1,13.26-13.26A13.275,13.275,0,0,1,1623.1,2021.493Zm0-23.368a10.109,10.109,0,1,0,10.11,10.108A10.12,10.12,0,0,0,1623.1,1998.125Z" transform="translate(-543.776 -482.136)" fill="#5d5d5d"/>
      <circle id="楕円形_1" data-name="楕円形 1" cx="3.287" cy="3.287" r="3.287" transform="translate(1090.277 1508.792)" fill="#3cd2c8"/>
    </g>
  </g>
</svg>
