<svg xmlns="http://www.w3.org/2000/svg" width="70" height="70"><g data-name="グループ 315"><path data-name="長方形 367" fill="#fff" d="M0 0h70v70H0z"/><g data-name="グループ 185"><g data-name="グループ 181"><g data-name="グループ 180"><path data-name="パス 62" d="M46.972 54.57H27.247a1.126 1.126 0 010-2.251h19.725a1.126 1.126 0 110 2.251z" fill="#3cd2c8"/></g></g><g data-name="グループ 183"><g data-name="グループ 182"><path data-name="パス 63" d="M21.618 54.57h-4.253a1.126 1.126 0 110-2.251h4.253a1.126 1.126 0 110 2.251z" fill="#3cd2c8"/></g></g><g data-name="グループ 184" fill="#5d5d5d"><path data-name="パス 64" d="M60.618 37.191a1.148 1.148 0 00-.338.8 1.1 1.1 0 00.338.8 1.08 1.08 0 00.788.327 1.105 1.105 0 00.8-.327 1.124 1.124 0 000-1.585 1.151 1.151 0 00-1.588-.015z"/><path data-name="パス 65" d="M62.536 15.93a1.127 1.127 0 00-1.126-1.126h-8.251a1.078 1.078 0 00-.276.056v-2.62a4.034 4.034 0 10-8.067 0v2.581c-.021 0-.039-.013-.058-.013H24.029c-.021 0-.038.011-.059.013v-2.576a4.033 4.033 0 10-8.066 0v2.62a1.052 1.052 0 00-.275-.056H7.378a1.126 1.126 0 00-1.126 1.126v45.386a1.126 1.126 0 001.126 1.126h39.946a1.129 1.129 0 00.433-.087 1.109 1.109 0 00.36-.241l14.087-14.087a1.116 1.116 0 00.28-1.082 1.163 1.163 0 00.05-.246v-3.415a1.126 1.126 0 10-2.251 0v2.822H47.321a1.127 1.127 0 00-1.125 1.126v12.961H8.501V29.364h51.782v3.334a1.126 1.126 0 002.251 0zM48.449 48.363h10.244L48.449 58.607zm-1.381-36.122a1.782 1.782 0 113.563 0v7.381a1.782 1.782 0 11-3.563 0zm-28.913 0a1.782 1.782 0 113.564 0v7.381a1.782 1.782 0 01-3.564 0zm42.13 14.872H8.503V17.056h7.126a1.114 1.114 0 00.275-.054v2.621a4.033 4.033 0 008.066 0v-2.578c.021 0 .038.011.059.011h20.729c.019 0 .037-.01.058-.011v2.578a4.034 4.034 0 008.067 0v-2.621a1.141 1.141 0 00.276.054h7.126z"/></g></g></g></svg>