<svg xmlns="http://www.w3.org/2000/svg" width="57.215" height="61.211" viewBox="0 0 57.215 61.211">
  <g id="グループ_304" data-name="グループ 304" transform="translate(-967.395 -654)">
    <path id="パス_152" data-name="パス 152" d="M1424.119,1943.842a1.221,1.221,0,0,0,.869-2.081,1.267,1.267,0,0,0-1.726-.012,1.218,1.218,0,0,0,.857,2.093Z" transform="translate(-447.105 -1285.944)" fill="#d3d3d3"/>
    <path id="パス_153" data-name="パス 153" d="M1469.283,1990.11a12.392,12.392,0,0,0-8.356-20.187v-20.408c0-5.806-11.034-8.94-21.416-8.94a51.262,51.262,0,0,0-7.408.523,1.224,1.224,0,1,0,.355,2.422,48.8,48.8,0,0,1,7.053-.5c11.177,0,18.967,3.421,18.967,6.492s-7.79,6.492-18.967,6.492-18.969-3.421-18.969-6.492c0-1.252,1.4-2.627,3.839-3.769a1.225,1.225,0,0,0-1.039-2.218c-4.337,2.032-5.248,4.377-5.248,5.987v43.331c0,5.808,11.034,8.94,21.417,8.94,10.112,0,18.458-2.67,20.768-6.644a1.168,1.168,0,0,0,.152-.519,12.325,12.325,0,0,0,7.122-2.779l5.666,5.665a1.224,1.224,0,1,0,1.731-1.73Zm.36-7.851a9.941,9.941,0,1,1-9.941-9.949A9.957,9.957,0,0,1,1469.644,1982.259Zm-22.33,0a12.416,12.416,0,0,0,.175,1.976,47.576,47.576,0,0,1-7.977.659c-11.177,0-18.969-3.423-18.969-6.492v-10.143c3.822,3.031,11.55,4.64,18.969,4.64s15.146-1.609,18.967-4.64v1.663A12.413,12.413,0,0,0,1447.314,1982.259Zm-7.8-23.8c7.417,0,15.146-1.607,18.967-4.638v10.142c0,3.069-7.79,6.492-18.967,6.492s-18.969-3.423-18.969-6.492v-10.142C1424.365,1956.848,1432.093,1958.455,1439.512,1958.455Zm0,40.882c-11.177,0-18.969-3.421-18.969-6.492V1982.7c3.822,3.031,11.55,4.638,18.969,4.638a50.106,50.106,0,0,0,8.634-.724,12.4,12.4,0,0,0,9.582,7.877C1455.57,1996.938,1448.837,1999.337,1439.512,1999.337Z" transform="translate(-450.7 -1286.574)" fill="#d3d3d3"/>
  </g>
</svg>
