<svg xmlns="http://www.w3.org/2000/svg" width="61.211" height="58.992" viewBox="0 0 61.211 58.992">
  <g id="グループ_302" data-name="グループ 302" transform="translate(-1522.973 -1940.84)">
    <path id="パス_140" data-name="パス 140" d="M1491.365,1958.895a1.247,1.247,0,0,0-.369.869,1.2,1.2,0,0,0,.369.869,1.18,1.18,0,0,0,.855.355,1.211,1.211,0,0,0,.869-.355,1.226,1.226,0,0,0,0-1.726A1.251,1.251,0,0,0,1491.365,1958.895Z" transform="translate(90.734 13.467)" fill="#d3d3d3"/>
    <path id="パス_141" data-name="パス 141" d="M1517.386,1947.9h-8.973a1.129,1.129,0,0,0-.3.061v-2.851a4.386,4.386,0,0,0-8.772,0v2.8c-.023,0-.042-.014-.065-.014h-22.542c-.024,0-.042.012-.065.014v-2.8a4.387,4.387,0,0,0-8.774,0v2.851a1.131,1.131,0,0,0-.3-.061h-8.974a1.225,1.225,0,0,0-1.224,1.224v49.368a1.226,1.226,0,0,0,1.224,1.224h43.443a1.232,1.232,0,0,0,.47-.095,1.247,1.247,0,0,0,.4-.266l15.318-15.319a1.215,1.215,0,0,0,.3-1.177,1.154,1.154,0,0,0,.054-.268v-3.715a1.224,1.224,0,1,0-2.448,0v3.069h-14.1a1.224,1.224,0,0,0-1.222,1.224v5.527h-20.611a1.224,1.224,0,0,0,0,2.448h20.611v6.121h-41v-33.535h56.315v3.627a1.224,1.224,0,0,0,2.448,0v-18.236A1.224,1.224,0,0,0,1517.386,1947.9Zm-14.094,36.5h11.139l-11.139,11.14Zm-1.5-39.286a1.938,1.938,0,1,1,3.875,0v8.027a1.938,1.938,0,1,1-3.875,0Zm-31.445,0a1.939,1.939,0,0,1,3.877,0v8.027a1.939,1.939,0,0,1-3.877,0Zm-10.5,16.174V1950.35h7.75a1.213,1.213,0,0,0,.3-.06v2.849a4.387,4.387,0,1,0,8.774,0v-2.8c.023,0,.04.012.065.012h22.542c.023,0,.042-.012.065-.012v2.8a4.386,4.386,0,1,0,8.772,0v-2.849a1.21,1.21,0,0,0,.3.06h7.749v10.936Z" transform="translate(65.574 0.114)" fill="#d3d3d3"/>
    <path id="パス_142" data-name="パス 142" d="M1464.835,1968.157a1.224,1.224,0,1,0,0,2.448h4.624a1.224,1.224,0,1,0,0-2.448Z" transform="translate(70.226 20.657)" fill="#d3d3d3"/>
  </g>
</svg>
