<svg xmlns="http://www.w3.org/2000/svg" width="61.211" height="57.771" viewBox="0 0 61.211 57.771">
  <g id="グループ_303" data-name="グループ 303" transform="translate(-883 -657.127)">
    <path id="パス_143" data-name="パス 143" d="M1382.851,1960.44a1.287,1.287,0,0,0,.869-.355,1.242,1.242,0,0,0,0-1.738,1.224,1.224,0,0,0-2.094.869,1.233,1.233,0,0,0,1.224,1.224Z" transform="translate(-478.011 -1273.518)" fill="#d3d3d3"/>
    <path id="パス_144" data-name="パス 144" d="M1421.861,1954.415l0,0-11.77-11.691v0l0,0c-.025-.024-.058-.035-.086-.058a1.171,1.171,0,0,0-.306-.2,1.221,1.221,0,0,0-.47-.1h-26.372a1.225,1.225,0,0,0-1.224,1.224v21.979a1.224,1.224,0,0,0,2.448,0V1944.81H1408v10.471a1.224,1.224,0,0,0,1.224,1.224h10.549v41.18h-35.7V1976.3a1.224,1.224,0,1,0-2.448,0v22.6a1.224,1.224,0,0,0,1.224,1.224H1421a1.224,1.224,0,0,0,1.224-1.224v-43.628a1.234,1.234,0,0,0-.36-.866Zm-11.413-7.887,7.58,7.529h-7.58Z" transform="translate(-478.01 -1285.235)" fill="#d3d3d3"/>
    <path id="パス_145" data-name="パス 145" d="M1386.5,1952.247h12.688a1.224,1.224,0,0,0,0-2.448H1386.5a1.224,1.224,0,1,0,0,2.448Z" transform="translate(-475.277 -1279.665)" fill="#d3d3d3"/>
    <path id="パス_146" data-name="パス 146" d="M1386.5,1956.9h22.618a1.225,1.225,0,0,0,0-2.45H1386.5a1.225,1.225,0,0,0,0,2.45Z" transform="translate(-475.277 -1276.181)" fill="#d3d3d3"/>
    <path id="パス_147" data-name="パス 147" d="M1386.5,1961.555h22.618a1.224,1.224,0,0,0,0-2.448H1386.5a1.224,1.224,0,1,0,0,2.448Z" transform="translate(-475.277 -1272.694)" fill="#d3d3d3"/>
    <path id="パス_148" data-name="パス 148" d="M1386.5,1966.21h22.618a1.225,1.225,0,0,0,0-2.45H1386.5a1.225,1.225,0,0,0,0,2.45Z" transform="translate(-475.277 -1269.21)" fill="#d3d3d3"/>
    <path id="パス_149" data-name="パス 149" d="M1386.5,1970.863h6.345a1.224,1.224,0,1,0,0-2.448H1386.5a1.224,1.224,0,1,0,0,2.448Z" transform="translate(-475.277 -1265.724)" fill="#d3d3d3"/>
    <path id="パス_150" data-name="パス 150" d="M1400.992,1968.415h-3.636a1.224,1.224,0,1,0,0,2.448h3.636a1.224,1.224,0,0,0,0-2.448Z" transform="translate(-467.148 -1265.724)" fill="#d3d3d3"/>
    <path id="パス_151" data-name="パス 151" d="M1381.058,1947.308v-3.721a1.224,1.224,0,0,0-2.448,0v3.721a6.134,6.134,0,0,0-4.789,6.029v2.267h-2.758a1.224,1.224,0,0,0-1.224,1.224v12.758a1.224,1.224,0,1,0,2.448,0v-11.534h1.534v21.718a27.12,27.12,0,0,0,4.789,15.457v3.683a1.224,1.224,0,1,0,2.448,0v-3.683a27.11,27.11,0,0,0,4.787-15.457v-8.991a1.224,1.224,0,0,0-2.448,0v8.991a24.719,24.719,0,0,1-3.562,12.865,24.726,24.726,0,0,1-3.562-12.865v-21.718h7.125v7.748a1.224,1.224,0,1,0,2.448,0v-12.463A6.132,6.132,0,0,0,1381.058,1947.308Zm-4.787,8.3v-2.267a3.565,3.565,0,1,1,7.125,0v2.267Z" transform="translate(-486.839 -1285.235)" fill="#d3d3d3"/>
  </g>
</svg>
