<svg data-name="グループ 395" xmlns="http://www.w3.org/2000/svg" width="34.266" height="47.217"><g data-name="グループ 376"><g data-name="グループ 375"><g data-name="グループ 374"><path data-name="パス 175" d="M26.981 15.784H7.285a.945.945 0 110-1.889h19.7a.945.945 0 110 1.889z" fill="#3cd2c8"/></g></g></g><g data-name="グループ 379"><g data-name="グループ 378"><g data-name="グループ 377"><path data-name="パス 176" d="M33.322 47.217H.944A.922.922 0 010 46.273V32.782a.922.922 0 01.944-.944.922.922 0 01.944.944v12.546h30.489V5.262h-8.364a.922.922 0 01-.944-.944.922.922 0 01.944-.944h9.308a.922.922 0 01.944.944v41.955a.922.922 0 01-.943.944z" fill="#3cd2c8"/></g></g></g><g data-name="グループ 382"><g data-name="グループ 381"><g data-name="グループ 380"><path data-name="パス 177" d="M.944 26.981A.922.922 0 010 26.037V4.452a.922.922 0 01.944-.944h9.039a.922.922 0 01.944.944c0 .54-.4.809-.944.809H1.889v20.64a.962.962 0 01-.945 1.08z" fill="#3cd2c8"/></g></g></g><g data-name="グループ 385"><g data-name="グループ 384"><g data-name="グループ 383"><path data-name="パス 178" d="M.944 30.356a1.03 1.03 0 01-.675-.27.978.978 0 010-1.349.9.9 0 011.349 0 .978.978 0 010 1.349 1.03 1.03 0 01-.674.27z" fill="#3cd2c8"/></g></g></g><g data-name="グループ 388"><g data-name="グループ 387"><g data-name="グループ 386"><path data-name="パス 179" d="M23.878 8.094H10.252a.922.922 0 01-.944-.944V.944A.922.922 0 0110.252 0h13.626a.922.922 0 01.944.944V7.15a.922.922 0 01-.944.944zM11.197 6.206h11.736V1.889H11.197z" fill="#3cd2c8"/></g></g></g><g data-name="グループ 391"><g data-name="グループ 390"><g data-name="グループ 389"><path data-name="パス 180" d="M26.981 23.204H7.285a.945.945 0 010-1.889h19.7a.945.945 0 010 1.889z" fill="#3cd2c8"/></g></g></g><g data-name="グループ 394"><g data-name="グループ 393"><g data-name="グループ 392"><path data-name="パス 181" d="M8.364 39.662a.811.811 0 01-.54-.135 1.014 1.014 0 01-.27-1.349l4.452-6.88a.742.742 0 01.675-.4 1.166 1.166 0 01.809.4l4.857 6.071 6.88-6.745a.954.954 0 011.349 1.349l-7.69 7.42a1.03 1.03 0 01-.675.27.742.742 0 01-.675-.4l-4.587-5.936-3.642 5.8a1.169 1.169 0 01-.943.535z" fill="#3cd2c8"/></g></g></g></svg>