<svg data-name="グループ 337" xmlns="http://www.w3.org/2000/svg" width="45.738" height="43.517"><g data-name="グループ 335"><g data-name="グループ 331"><path data-name="パス 163" d="M39.466 38.42h-7.449a.893.893 0 01-.915-.915V15.159a.893.893 0 01.915-.915h7.449a.893.893 0 01.915.915v22.346a.893.893 0 01-.915.915zm-6.534-1.83h5.619V16.074h-5.619z" fill="#3cd2c8"/></g><g data-name="グループ 332"><path data-name="パス 164" d="M26.529 38.42H19.08a.893.893 0 01-.915-.915V25.091a.893.893 0 01.915-.915h7.449a.893.893 0 01.915.915v12.414a.893.893 0 01-.915.915zm-6.4-1.83h5.616V26.006h-5.62z" fill="#3cd2c8"/></g><g data-name="グループ 333"><path data-name="パス 165" d="M6.273 14.375a1 1 0 01-.653-.261.947.947 0 010-1.307.873.873 0 011.307 0 .947.947 0 010 1.307 1 1 0 01-.654.261z" fill="#3cd2c8"/></g><g data-name="グループ 334"><path data-name="パス 166" d="M13.722 38.42H6.273a.893.893 0 01-.915-.915V16.989a.915.915 0 011.83 0v19.6h5.619V1.83H7.188v8.1a.915.915 0 01-1.83 0V.915A.893.893 0 016.273 0h7.449a.893.893 0 01.915.915v36.59a.893.893 0 01-.915.915z" fill="#3cd2c8"/></g></g><g data-name="グループ 336"><path data-name="パス 167" d="M44.824 43.517H.915a.915.915 0 010-1.83h43.909a.915.915 0 010 1.83z" fill="#3cd2c8"/></g></svg>