<svg xmlns="http://www.w3.org/2000/svg" width="42.576" height="42.816"><g data-name="グループ 404"><g data-name="グループ 402"><g data-name="グループ 396"><path data-name="パス 182" d="M.893 42.69a.962.962 0 01-.63-.252.762.762 0 01-.126-1.007l5.415-11.585c0-.126.126-.126.126-.252L33.635 1.511A5.126 5.126 0 0137.409 0a4.844 4.844 0 013.652 1.511 5.322 5.322 0 010 7.43L12.982 37.024c-.126.126-.126.126-.252.126L1.271 42.565a.463.463 0 01-.378.125zm6.045-11.963L2.656 39.92l9.193-4.282 27.96-27.956a3.422 3.422 0 000-4.911 3.665 3.665 0 00-4.911 0z" fill="#3cd2c8"/></g><g data-name="グループ 397"><path data-name="パス 183" d="M9.209 38.784a.962.962 0 01-.63-.252l-4.412-4.53a.841.841 0 010-1.259.841.841 0 011.259 0l4.408 4.534a.841.841 0 010 1.259.962.962 0 01-.625.248z" fill="#3cd2c8"/></g><g data-name="グループ 398"><path data-name="パス 184" d="M39.428 10.2a.962.962 0 01-.63-.252l-6.045-6.17a.841.841 0 010-1.259.841.841 0 011.259 0l6.171 6.171a.841.841 0 010 1.259 1.79 1.79 0 01-.755.251z" fill="#3cd2c8"/></g><g data-name="グループ 399"><path data-name="パス 185" d="M25.197 18.26a.962.962 0 01-.63-.252.841.841 0 010-1.259L35.775 5.541a.841.841 0 011.259 0 .841.841 0 010 1.259L25.827 18.008c-.126.252-.378.252-.63.252z" fill="#3cd2c8"/></g><g data-name="グループ 400"><path data-name="パス 186" d="M22.05 21.535a.891.891 0 01-.63-1.511.841.841 0 011.259 0 .913.913 0 010 1.259 2.128 2.128 0 01-.629.252z" fill="#3cd2c8"/></g><g data-name="グループ 401"><path data-name="パス 187" d="M7.063 36.52a.962.962 0 01-.63-.252.841.841 0 010-1.259l11.712-11.838a.89.89 0 111.259 1.259L7.567 36.268a.5.5 0 01-.504.252z" fill="#3cd2c8"/></g></g><g data-name="グループ 403"><path data-name="パス 188" d="M1.019 42.816a.882.882 0 010-1.763l40.675-.126a.882.882 0 010 1.763l-40.675.126z" fill="#3cd2c8"/></g></g></svg>