<svg xmlns="http://www.w3.org/2000/svg" width="55.044" height="50.308"><g data-name="グループ 432"><g data-name="グループ 422"><g data-name="グループ 421"><path data-name="パス 196" d="M3.729 8.237a1.02 1.02 0 01-1.044-1.04V5.556A5.6 5.6 0 018.204.037h28.641a1.02 1.02 0 011.04 1.044 1.02 1.02 0 01-1.04 1.044H8.204a3.376 3.376 0 00-3.431 3.431v1.641a1.121 1.121 0 01-1.044 1.04z" fill="#3cd2c8"/></g></g><g data-name="グループ 424"><g data-name="グループ 423"><path data-name="パス 197" d="M41.32 2.125a1.139 1.139 0 01-.746-.3c-.3-.149-.3-.448-.3-.746a1.139 1.139 0 01.3-.746 1 1 0 011.492 0 1.139 1.139 0 01.3.746 1.139 1.139 0 01-.3.746c-.298.152-.447.3-.746.3z" fill="#3cd2c8"/></g></g><g data-name="グループ 426"><g data-name="グループ 425"><path data-name="パス 198" d="M53.85 8.237H9.994a1.121 1.121 0 01-1.044-1.04 1.02 1.02 0 011.044-1.044h42.813v-.6a3.376 3.376 0 00-3.431-3.431H45.65a1.02 1.02 0 01-1.044-1.044A1.153 1.153 0 0145.795.037h3.729a5.6 5.6 0 015.519 5.519v1.641a1.445 1.445 0 01-1.193 1.04z" fill="#3cd2c8"/></g></g><g data-name="グループ 428"><g data-name="グループ 427"><path data-name="パス 199" d="M49.376 30.319H8.204a5.6 5.6 0 01-5.519-5.52V7.197a1.02 1.02 0 011.044-1.044 1.02 1.02 0 011.044 1.044v17.6a3.376 3.376 0 003.431 3.431h41.172a3.376 3.376 0 003.431-3.431v-17.6a1.044 1.044 0 012.088 0v17.6a5.6 5.6 0 01-5.519 5.522z" fill="#3cd2c8"/></g></g><g data-name="グループ 429"><path data-name="パス 200" d="M16.707 50.308a.9.9 0 01-.6-.149 1.121 1.121 0 01-.3-1.492l12.088-19.541a1.076 1.076 0 011.79 1.193L17.602 49.86a1.289 1.289 0 01-.895.448z" fill="#3cd2c8"/></g><g data-name="グループ 430"><path data-name="パス 201" d="M40.873 50.308a1.063 1.063 0 01-.9-.448L27.895 30.319a1.076 1.076 0 011.79-1.193l12.083 19.541a1.157 1.157 0 01-.3 1.492 1.128 1.128 0 01-.595.149z" fill="#3cd2c8"/></g><g data-name="グループ 431"><path data-name="パス 202" d="M28.79 50.309c-.6 0-1.044-.3-1.044-.746V30.618c0-.448.448-.746 1.044-.746s1.044.3 1.044.746v18.945c0 .447-.447.746-1.044.746z" fill="#3cd2c8"/></g><path data-name="パス 203" d="M2.834 6.153H1.492A1.5 1.5 0 010 4.662 1.5 1.5 0 011.492 3.17h1.342a1.5 1.5 0 011.492 1.492 1.6 1.6 0 01-1.492 1.491z" fill="#3cd2c8"/></g></svg>