<svg xmlns="http://www.w3.org/2000/svg" width="51.594" height="35.609"><g data-name="グループ 419"><g data-name="グループ 406"><g data-name="グループ 405"><path data-name="パス 189" d="M1.029 8.122A1.1 1.1 0 010 7.093V5.476A5.523 5.523 0 015.439.037h28.222a1 1 0 011.029 1.029 1 1 0 01-1.029 1.029H5.439a3.326 3.326 0 00-3.381 3.381v1.617a1.1 1.1 0 01-1.029 1.029z" fill="#3cd2c8"/></g></g><g data-name="グループ 408"><g data-name="グループ 407"><path data-name="パス 190" d="M38.071 2.095a1.123 1.123 0 01-.735-.294 1.123 1.123 0 01-.294-.735 1.123 1.123 0 01.294-.735.982.982 0 011.47 0 1.123 1.123 0 01.294.735 1.123 1.123 0 01-.294.735 1.123 1.123 0 01-.735.294z" fill="#3cd2c8"/></g></g><g data-name="グループ 410"><g data-name="グループ 409"><path data-name="パス 191" d="M50.418 8.122H7.203a1.029 1.029 0 110-2.058h42.186v-.588a3.326 3.326 0 00-3.381-3.381h-3.674a1 1 0 01-1.029-1.029A1.136 1.136 0 0142.481.037h3.675a5.523 5.523 0 015.438 5.439v1.617a1.424 1.424 0 01-1.176 1.029z" fill="#3cd2c8"/></g></g><g data-name="グループ 412"><g data-name="グループ 411"><path data-name="パス 192" d="M46.008 29.876H5.439A5.523 5.523 0 010 24.437V7.092a1 1 0 011.029-1.029 1 1 0 011.029 1.029v17.345a3.326 3.326 0 003.381 3.381h40.57a3.326 3.326 0 003.381-3.381V7.092a1.029 1.029 0 012.058 0v17.345a5.523 5.523 0 01-5.44 5.439z" fill="#3cd2c8"/></g></g><g data-name="グループ 414"><g data-name="グループ 413"><path data-name="パス 193" d="M37.482 23.849a1.123 1.123 0 01-.735-.294l-4.262-4.263-1.029 1.028a.707.707 0 01-.882.294 1.771 1.771 0 01-.735-.735l-1.764-8.083c0-.294 0-.735.294-.882a1.08 1.08 0 01.882-.294l7.938 1.764c.441.147.735.294.735.735a.974.974 0 01-.294 1.029l-.882.882 4.263 4.263a.982.982 0 010 1.47l-2.793 2.793a1.123 1.123 0 01-.736.293zm-4.851-7.056a1.123 1.123 0 01.735.294l4.263 4.263 1.323-1.323-4.263-4.263a.982.982 0 010-1.47l.441-.441-4.555-1.033 1.029 4.557.441-.441a1.52 1.52 0 01.587-.142z" fill="#3cd2c8"/></g></g><g data-name="グループ 416"><g data-name="グループ 415"><path data-name="パス 194" d="M25.136 35.609a1 1 0 01-1.029-1.029V28.7a1.029 1.029 0 112.058 0v5.88a1 1 0 01-1.029 1.029z" fill="#3cd2c8"/></g></g><g data-name="グループ 418"><g data-name="グループ 417"><path data-name="パス 195" d="M31.309 35.609H18.962a1.029 1.029 0 010-2.058h12.347a1.029 1.029 0 010 2.058z" fill="#3cd2c8"/></g></g></g></svg>