<svg data-name="グループ 373" xmlns="http://www.w3.org/2000/svg" width="52.604" height="49.417"><g data-name="グループ 356"><g data-name="グループ 355"><g data-name="グループ 348"><g data-name="グループ 347"><g data-name="グループ 346"><path data-name="パス 168" d="M19.945 49.416h-5.21a1.017 1.017 0 01-1.042-1.042v-3.125a12.441 12.441 0 01-2.977-1.191l-2.381 2.233a1.352 1.352 0 01-1.488 0l-3.721-3.423c0-.149-.149-.3-.149-.6a1.137 1.137 0 01.3-.744l2.382-2.233a19.376 19.376 0 01-1.194-2.523H1.042A1.017 1.017 0 010 35.723v-4.764a1.062 1.062 0 011.042-1.191h3.423a7.9 7.9 0 011.191-2.53l-2.381-2.232a1.079 1.079 0 010-1.488L7 20.094a1.352 1.352 0 011.488 0l2.382 2.233a17.74 17.74 0 012.977-1.191V18.01a1.017 1.017 0 011.038-1.042h5.21a1.017 1.017 0 011.042 1.042v3.126a12.441 12.441 0 012.977 1.191l2.382-2.233a1.352 1.352 0 011.488 0l3.716 3.423a1.079 1.079 0 010 1.488l-2.377 2.233a19.376 19.376 0 011.191 2.53h3.423a1.017 1.017 0 011.042 1.042v4.763a1.017 1.017 0 01-1.042 1.042h-3.424a7.9 7.9 0 01-1.191 2.53l2.378 2.234a1.079 1.079 0 010 1.488l-3.721 3.423a1.352 1.352 0 01-1.488 0l-2.378-2.232a17.741 17.741 0 01-2.977 1.191v3.126a1.263 1.263 0 01-1.191 1.041zm-4.168-2.084H18.9v-2.828a1.087 1.087 0 01.893-1.042 10.29 10.29 0 003.721-1.488.9.9 0 011.191.149l2.233 2.084 2.087-1.939-1.935-2.08a.942.942 0 01-.149-1.34 7.784 7.784 0 001.488-3.423 1.119 1.119 0 011.042-.744h3.275v-2.68h-3.275a1.119 1.119 0 01-1.042-.744 9.995 9.995 0 00-1.488-3.423.942.942 0 01.149-1.34l2.233-2.084-2.233-2.084-2.233 2.084a1.165 1.165 0 01-1.191.149 11.483 11.483 0 00-3.721-1.491 1.277 1.277 0 01-.893-1.042v-2.825h-3.126v2.828a1.087 1.087 0 01-.893 1.042 10.289 10.289 0 00-3.721 1.488.9.9 0 01-1.191-.149l-2.53-2.084-2.084 1.935 2.233 2.084a.942.942 0 01.149 1.34A7.784 7.784 0 006.4 31.108a1.119 1.119 0 01-1.042.744H2.084v2.679h3.274a1.119 1.119 0 011.042.744 9.995 9.995 0 001.488 3.423.942.942 0 01-.149 1.34l-2.232 2.085 2.084 1.935 2.233-2.084a1.111 1.111 0 011.34 0 11.483 11.483 0 003.721 1.488 1.277 1.277 0 01.893 1.042z" fill="#3cd2c8"/></g></g></g><g data-name="グループ 351"><g data-name="グループ 350"><g data-name="グループ 349"><path data-name="パス 169" d="M24.113 39.89a1.017 1.017 0 01-1.042-1.042 1.042 1.042 0 111.042 1.042z" fill="#3cd2c8"/></g></g></g><g data-name="グループ 354"><g data-name="グループ 353"><g data-name="グループ 352"><path data-name="パス 170" d="M17.415 42.57c-5.508 0-9.973-4.168-9.973-9.378s4.465-9.377 9.973-9.377 9.973 4.168 9.973 9.377a10.825 10.825 0 01-1.046 4.317 1.1 1.1 0 11-1.935-1.042 6.374 6.374 0 00.893-3.275c0-4.019-3.572-7.293-7.889-7.293s-7.889 3.275-7.889 7.293 3.572 7.293 7.889 7.293a9.824 9.824 0 004.019-.893.98.98 0 011.34.447.883.883 0 01-.447 1.34 11.37 11.37 0 01-4.908 1.191z" fill="#3cd2c8"/></g></g></g></g></g><g data-name="グループ 364"><g data-name="グループ 363"><g data-name="グループ 359"><g data-name="グループ 358"><g data-name="グループ 357"><path data-name="パス 171" d="M41.974 31.258l-3.275-.447a.819.819 0 01-.744-.447.655.655 0 01-.149-.744l.149-1.488a8.839 8.839 0 01-1.191-.6l-1.488 1.046a.942.942 0 01-1.34-.149l-1.935-2.233a1.137 1.137 0 01-.3-.744.819.819 0 01.447-.744l1.34-.893a2.8 2.8 0 01-.3-1.191l-1.786-.149a.819.819 0 01-.744-.447.655.655 0 01-.149-.744l.3-2.828A.954.954 0 0132 17.563l1.786.149c.149-.3.447-.744.6-1.042l-1.042-1.191a1.137 1.137 0 01-.3-.744.819.819 0 01.447-.744l2.53-2.084a.942.942 0 011.34.149l1.191 1.34a4.346 4.346 0 011.34-.3l.147-1.638a.954.954 0 011.191-.893l3.126.3a.819.819 0 01.744.447.655.655 0 01.149.744l-.149 1.488a8.838 8.838 0 011.191.6l1.488-1.046a1.138 1.138 0 011.34.3l1.935 2.233a1.137 1.137 0 01.3.744.819.819 0 01-.447.744l-1.34.893a2.8 2.8 0 01.3 1.191l1.786.149a.819.819 0 01.744.447.655.655 0 01.149.744l-.3 2.828a.954.954 0 01-1.191.893l-1.786-.149c-.149.3-.447.744-.6 1.042l1.042 1.191a1.137 1.137 0 01.3.744.819.819 0 01-.447.744l-2.382 1.786a.942.942 0 01-1.34-.149l-1.191-1.042a4.346 4.346 0 01-1.34.3l-.149 1.637a1.3 1.3 0 01-1.188.89zm-1.935-2.382l1.042.149.149-1.34a.96.96 0 01.893-.893 6.238 6.238 0 002.233-.6.933.933 0 011.191.3l1.046 1.193.744-.6-.893-1.042a1.111 1.111 0 010-1.34 5.575 5.575 0 001.042-1.786 1.119 1.119 0 011.042-.744l1.488.149.149-.744-1.488-.149a.96.96 0 01-.893-.893 5.519 5.519 0 00-.6-2.084.969.969 0 01.3-1.34l1.042-.744-.6-.744-1.042.744a.9.9 0 01-1.191 0 5.5 5.5 0 00-2.084-1.042 1.179 1.179 0 01-.744-1.191l.149-1.34-1.042-.149-.149 1.34a.96.96 0 01-.893.893 6.238 6.238 0 00-2.233.6.933.933 0 01-1.191-.3l-1.042-1.191-.744.744.893 1.042a1.111 1.111 0 010 1.34 5.575 5.575 0 00-1.042 1.786 1.119 1.119 0 01-1.042.744l-1.488-.149-.3.744 1.488.149a.96.96 0 01.893.893 5.519 5.519 0 00.6 2.084.969.969 0 01-.3 1.34l-1.042.744.6.744 1.191-.893a.9.9 0 011.191 0 5.5 5.5 0 002.084 1.042 1.179 1.179 0 01.744 1.191z" fill="#3cd2c8"/></g></g></g><g data-name="グループ 362"><g data-name="グループ 361"><g data-name="グループ 360"><path data-name="パス 172" d="M41.677 25.601h-.6a5.015 5.015 0 01-3.419-1.936 4.8 4.8 0 01-.893-3.423 5.016 5.016 0 018.931-2.233 4.8 4.8 0 01.893 3.423 5.219 5.219 0 01-.893 2.084 1.073 1.073 0 01-1.786-1.191 1.69 1.69 0 00.447-1.191 2.045 2.045 0 00-.6-1.786 3.258 3.258 0 00-2.084-1.191 2.909 2.909 0 00-3.275 2.233 2.045 2.045 0 00.6 1.786 3.258 3.258 0 002.084 1.189 4.589 4.589 0 001.488-.149c.6-.149 1.191 0 1.34.6s0 1.191-.6 1.34a3 3 0 01-1.633.445z" fill="#3cd2c8"/></g></g></g></g></g><g data-name="グループ 372"><g data-name="グループ 371"><g data-name="グループ 367"><g data-name="グループ 366"><g data-name="グループ 365"><path data-name="パス 173" d="M27.092 16.82l-2.679-.3a.819.819 0 01-.744-.447.655.655 0 01-.149-.744l.149-1.042c-.3-.149-.447-.3-.744-.447l-1.042.744a.942.942 0 01-1.34-.149l-1.491-1.783a1.137 1.137 0 01-.3-.744.819.819 0 01.447-.744l.893-.744a.9.9 0 01-.149-.6l-1.34-.149a.819.819 0 01-.744-.447.655.655 0 01-.149-.744l.3-2.233a.954.954 0 011.191-.893l1.34.149c.149-.149.149-.447.3-.6l-.749-.884a1.137 1.137 0 01-.3-.744.819.819 0 01.447-.744l1.935-1.488a.942.942 0 011.34.149l.744.893a1.618 1.618 0 01.744-.149l.3-1.042c0-.6.6-.893 1.191-.893l2.53.3a.819.819 0 01.744.447c0 .149.149.447 0 .744V2.53c.3.149.447.3.744.447l1.042-.744a.942.942 0 011.34.149l1.488 1.786a1.137 1.137 0 01.3.744.819.819 0 01-.447.744l-.893.744a.9.9 0 01.151.6l1.34.149a.819.819 0 01.744.447 6.448 6.448 0 01.149.744l-.3 2.233a.954.954 0 01-1.191.893l-1.34-.149a.773.773 0 01-.3.6l.744.893a1.137 1.137 0 01.3.744.819.819 0 01-.447.744l-1.935 1.488a.942.942 0 01-1.34-.149l-.744-.893a1.618 1.618 0 01-.744.149l-.149 1.042a1.4 1.4 0 01-1.187.885zm-1.34-2.233h.44l.149-.893a.96.96 0 01.893-.893 3.963 3.963 0 001.786-.447.933.933 0 011.191.3l.6.744h.3l-.6-.6a1.111 1.111 0 010-1.34 6.99 6.99 0 00.893-1.34 1.119 1.119 0 011.042-.744l1.042.149v-.3l-1.04-.143a.96.96 0 01-.893-.893 2.515 2.515 0 00-.447-1.487.969.969 0 01.3-1.34l.744-.447-.3-.447-.893.6a.9.9 0 01-1.191 0 4.954 4.954 0 00-1.488-.893 1.179 1.179 0 01-.744-1.191l.149-.893h-.447l-.149.893a.96.96 0 01-.893.893 3.963 3.963 0 00-1.786.447.933.933 0 01-1.191-.3l-.6-.744-.3.3.6.6a1.111 1.111 0 010 1.34 6.99 6.99 0 00-.893 1.34.92.92 0 01-1.191.744l-1.043-.16v.3l1.042.149a.96.96 0 01.893.893 2.515 2.515 0 00.447 1.488.969.969 0 01-.3 1.34l-.744.447.149.3 1.042-.6a.9.9 0 011.191 0 16.235 16.235 0 001.637.893 1.179 1.179 0 01.744 1.191z" fill="#3cd2c8"/></g></g></g><g data-name="グループ 370"><g data-name="グループ 369"><g data-name="グループ 368"><path data-name="パス 174" d="M26.643 11.907h-.447a3.476 3.476 0 01-2.382-1.488 3.9 3.9 0 01-.744-2.53 3.531 3.531 0 014.019-2.977 3.852 3.852 0 012.53 1.34 3.9 3.9 0 01.744 2.53 1.053 1.053 0 01-2.084-.3 1.094 1.094 0 00-.3-.893 1.507 1.507 0 00-1.042-.6 1.544 1.544 0 00-1.786 1.191 1.094 1.094 0 00.3.893 1.507 1.507 0 001.042.6 1.888 1.888 0 00.893-.149c.6-.149 1.191 0 1.34.6s0 1.191-.6 1.34a2.515 2.515 0 01-1.483.443z" fill="#3cd2c8"/></g></g></g></g></g></svg>